<svg width="584" height="406" xmlns="http://www.w3.org/2000/svg" xmlns:xlink="http://www.w3.org/1999/xlink" xml:space="preserve" overflow="hidden"><g transform="translate(-33 -147)"><path d="M0 0 584 0 584 405.15 0 405.15Z" fill="#FFFFFF" transform="matrix(1 0 0 1.00171 33 147.079)"/><g><path d="M51.6632 32.85 570.862 32.85" stroke="#000000" stroke-width="0.292086" stroke-linejoin="round" stroke-miterlimit="10" fill="none" transform="matrix(1 0 0 1.00171 33 147.079)"/></g><g><path d="M51.6632 111.688 570.862 111.688" stroke="#000000" stroke-width="0.292086" stroke-linejoin="round" stroke-miterlimit="10" fill="none" transform="matrix(1 0 0 1.00171 33 147.079)"/></g><g><path d="M51.6632 193.81 570.862 193.81" stroke="#000000" stroke-width="0.292086" stroke-linejoin="round" stroke-miterlimit="10" fill="none" transform="matrix(1 0 0 1.00171 33 147.079)"/></g><g><path d="M51.6632 275.935 570.862 275.935" stroke="#000000" stroke-width="0.292086" stroke-linejoin="round" stroke-miterlimit="10" fill="none" transform="matrix(1 0 0 1.00171 33 147.079)"/></g><g><path d="M51.6632 358.057 570.862 358.057" stroke="#000000" stroke-width="0.292086" stroke-linejoin="round" stroke-miterlimit="10" fill="none" transform="matrix(1 0 0 1.00171 33 147.079)"/></g><path d="M89.7885 32.85 176.926 32.85 184.186 36.1329 191.447 32.85 198.711 39.4193 205.972 32.85 220.494 32.85 227.755 36.1329 293.109 36.1329 300.369 39.4193 307.63 36.1329 431.078 36.1329 438.339 39.4193 452.86 39.4193 460.121 36.1329 474.646 36.1329 481.907 39.4193 489.168 39.4193 496.428 42.7057 503.693 39.4193 510.953 39.4193" stroke="#F8766D" stroke-width="0.973619" stroke-linejoin="round" stroke-miterlimit="10" fill="none" transform="matrix(1 0 0 1.00171 33 147.079)"/><path d="M89.7885 108.402 97.0489 114.971 104.31 101.833 111.571 121.544 118.832 111.688 126.097 118.258 133.357 124.827 140.618 124.827 147.879 128.113 155.14 137.965 162.404 118.258 169.665 137.965 176.926 134.683 184.186 147.821 191.447 124.827 198.711 134.683 205.972 118.258 213.233 121.544 220.494 121.544 227.755 111.688 235.015 118.258 242.28 121.544 249.54 111.688 256.801 98.5464 264.062 105.119 271.323 95.2632 278.587 105.119 285.848 111.688 293.109 108.402 300.369 105.119 307.63 118.258 314.895 105.119 322.155 111.688 329.416 101.833 336.677 105.119 343.938 101.833 351.202 105.119 358.463 101.833 365.724 101.833 372.984 114.971 380.245 111.688 387.51 111.688 394.77 118.258 402.031 118.258 409.292 128.113 416.553 151.108 423.813 157.677 431.078 151.108 438.339 147.821 445.599 167.533 452.86 157.677 460.121 164.246 467.385 160.963 474.646 154.39 481.907 157.677 489.168 144.538 496.428 154.39 503.693 147.821 510.953 170.815" stroke="#00BA38" stroke-width="0.973619" stroke-linejoin="round" stroke-miterlimit="10" fill="none" transform="matrix(1 0 0 1.00171 33 147.079)"/><path d="M89.7885 151.108 97.0489 154.39 104.31 147.821 111.571 154.39 118.832 137.965 126.097 160.963 133.357 160.963 140.618 180.671 147.879 193.81 155.14 190.527 162.404 190.527 169.665 223.377 176.926 200.38 184.186 216.805 191.447 193.81 198.711 190.527 205.972 174.102 220.494 206.952 227.755 210.235 235.015 213.521 242.28 203.665 249.54 203.665 256.801 200.38 264.062 210.235 271.323 167.533 278.587 206.952 285.848 190.527 293.109 216.805 300.369 183.958 307.63 220.09 314.895 213.521 322.155 210.235 329.416 210.235 336.677 223.377 343.938 236.515 358.463 236.515 365.724 226.66 372.984 256.224 380.245 246.371 387.51 236.515 394.77 262.796 402.031 249.655 409.292 266.08 416.553 246.371 423.813 295.643 431.078 295.643 438.339 302.212 445.599 295.643 452.86 335.062 460.121 325.21 467.385 335.062 474.646 295.643 481.907 321.924 489.168 335.062 496.428 321.924 503.693 312.068 510.953 328.493" stroke="#619CFF" stroke-width="0.973619" stroke-linejoin="round" stroke-miterlimit="10" fill="none" transform="matrix(1 0 0 1.00171 33 147.079)"/><path d="M-0.0142578 0 2.99414-7.83823 4.11338-7.83823 7.32139 0 6.13799 0 5.22549-2.37392 1.94619-2.37392 1.08359 0ZM2.24561-3.2187 4.90469-3.2187 4.08486-5.38945C3.83535-6.04888 3.65-6.59068 3.52881-7.01484 3.429-6.50869 3.28642-6.00967 3.1082-5.51778Z" fill="#619CFF" transform="matrix(1 0 0 1.00171 543.953 480.06)"/><path d="M4.44131 0 4.44131-0.834082C3.99576-0.192481 3.39693 0.12832 2.64126 0.12832 2.3062 0.12832 1.99253 0.0641602 1.70381-0.0641602 1.41153-0.192481 1.19409-0.352881 1.05508-0.548926 0.9125-0.741406 0.81626-0.980226 0.759228-1.26181 0.716455-1.45073 0.695069-1.75015 0.698633-2.16006L0.698633-5.67818 1.66103-5.67818 1.66103-2.53076C1.65747-2.02461 1.67885-1.68599 1.72163-1.51133 1.77866-1.25826 1.90698-1.05865 2.10659-0.916068 2.30264-0.766358 2.54502-0.695069 2.83374-0.698633 3.1189-0.695069 3.38979-0.769922 3.64643-0.919627 3.89951-1.06934 4.07773-1.26894 4.18467-1.52559 4.28804-1.77866 4.3415-2.14937 4.3415-2.63769L4.3415-5.67818 5.30391-5.67818 5.30391 0Z" fill="#619CFF" transform="matrix(1 0 0 1.00171 551.257 480.06)"/><path d="M0.335059-1.69668 1.29033-1.84639C1.34023-1.46142 1.48994-1.16914 1.73589-0.965963 1.97827-0.762793 2.32046-0.662989 2.75889-0.662989 3.20088-0.662989 3.52881-0.7521 3.74267-0.933889 3.95655-1.11211 4.06347-1.32241 4.06347-1.56836 4.06347-1.78222 3.96724-1.95332 3.77832-2.08164 3.64643-2.16362 3.31851-2.27412 2.79453-2.40601 2.08877-2.58423 1.60044-2.7375 1.32954-2.86938 1.05508-2.99771 0.84834-3.17593 0.709326-3.40762 0.566748-3.63575 0.495459-3.89238 0.499023-4.17041 0.495459-4.41992 0.55249-4.65162 0.670117-4.8726 0.78418-5.08648 0.944583-5.26826 1.14419-5.41084 1.2939-5.51778 1.49707-5.61045 1.75727-5.68887 2.01392-5.76728 2.29194-5.80649 2.5878-5.80649 3.03335-5.80649 3.42188-5.74234 3.76049-5.61401 4.09556-5.48569 4.34507-5.31103 4.50547-5.09003 4.66587-4.86905 4.77637-4.57675 4.84053-4.21319L3.89951-4.08486C3.85318-4.37715 3.72842-4.60528 3.52524-4.76924 3.31851-4.9332 3.02978-5.01518 2.65908-5.01518 2.21352-5.01518 1.89985-4.94033 1.71094-4.79419 1.51845-4.64805 1.42221-4.47695 1.42578-4.28447 1.42221-4.15615 1.46142-4.04565 1.54697-3.94585 1.61826-3.84248 1.74302-3.75694 1.91411-3.68921 2.01035-3.65357 2.29194-3.57158 2.76602-3.44326 3.44326-3.26148 3.91734-3.11177 4.18823-2.99771 4.45201-2.88008 4.66587-2.71255 4.82271-2.49155 4.97597-2.27056 5.05083-1.99609 5.05439-1.66816 5.05083-1.34736 4.95815-1.04438 4.7728-0.759228 4.58389-0.474072 4.31299-0.253076 3.9601-0.103369 3.60722 0.0534668 3.208 0.12832 2.76602 0.12832 2.02461 0.12832 1.46142-0.0249512 1.07647-0.331494 0.687939-0.638037 0.441992-1.09072 0.335059-1.69668Z" fill="#619CFF" transform="matrix(1 0 0 1.00171 557.347 480.06)"/><path d="M2.82305-0.862598 2.96206-0.0106934C2.69116 0.0463379 2.44878 0.0748536 2.23491 0.0748536 1.8856 0.0748536 1.6147 0.0213867 1.42221-0.0891114 1.22974-0.199609 1.09429-0.345752 1.01587-0.527539 0.937448-0.705762 0.898242-1.08359 0.898242-1.66103L0.898242-4.92964 0.192481-4.92964 0.192481-5.67818 0.898242-5.67818 0.898242-7.08613 1.85352-7.66358 1.85352-5.67818 2.82305-5.67818 2.82305-4.92964 1.85352-4.92964 1.85352-1.61113C1.84995-1.33311 1.86778-1.15845 1.90342-1.08003 1.93906-1.00161 1.99253-0.937448 2.07095-0.891114 2.1458-0.844775 2.2563-0.823389 2.40244-0.823389 2.50225-0.823389 2.64483-0.834082 2.82305-0.862598Z" fill="#619CFF" transform="matrix(1 0 0 1.00171 562.822 480.06)"/><path d="M0.712891 0 0.712891-5.67818 1.57549-5.67818 1.57549-4.81914C1.79648-5.21836 1.99966-5.48569 2.18858-5.61401 2.37392-5.74234 2.58066-5.80649 2.80878-5.80649 3.12959-5.80649 3.46109-5.70312 3.79615-5.49639L3.46465-4.60528C3.22939-4.74072 2.99414-4.81201 2.75889-4.81201 2.54859-4.81201 2.35967-4.74785 2.19214-4.6231 2.02104-4.49477 1.89985-4.32012 1.83213-4.09556 1.72519-3.75337 1.67173-3.3791 1.6753-2.97275L1.6753 0Z" fill="#619CFF" transform="matrix(1 0 0 1.00171 565.864 480.06)"/><path d="M4.42705-0.698633C4.07061-0.395655 3.72485-0.181787 3.39693-0.0570313 3.06187 0.0677247 2.70898 0.12832 2.33828 0.12832 1.71094 0.12832 1.2333-0.0213867 0.898242-0.32793 0.563184-0.627344 0.395655-1.01944 0.395655-1.49707 0.395655-1.7751 0.45625-2.02818 0.58457-2.2563 0.709326-2.48443 0.876856-2.66977 1.08359-2.81235 1.28677-2.95137 1.51845-3.05474 1.7751-3.12959 1.96401-3.17236 2.24917-3.22227 2.63056-3.27217 3.40762-3.36484 3.97793-3.47534 4.34863-3.60366 4.34863-3.73198 4.3522-3.81397 4.3522-3.85674 4.3522-4.2417 4.25952-4.51972 4.07773-4.68369 3.83179-4.90112 3.46821-5.00806 2.98345-5.01162 2.5272-5.00806 2.19214-4.92964 1.97827-4.7728 1.7644-4.6124 1.604-4.33081 1.5042-3.92803L0.563184-4.05635C0.645166-4.45913 0.787744-4.7835 0.983784-5.033 1.17627-5.27539 1.45786-5.46787 1.83213-5.60332 2.19927-5.73877 2.63056-5.80649 3.12247-5.80649 3.60722-5.80649 3.99931-5.74946 4.30229-5.6354 4.60528-5.52134 4.82984-5.37519 4.97241-5.2041 5.11499-5.02944 5.21479-4.81201 5.27182-4.54825 5.30034-4.38428 5.3146-4.08843 5.31816-3.66425L5.31816-2.38106C5.3146-1.48281 5.33599-0.916068 5.37876-0.680811 5.42154-0.441992 5.50352-0.217431 5.6247 0L4.61953 0C4.51972-0.199609 4.45556-0.431299 4.42705-0.698633ZM4.34863-2.85156C3.99219-2.70542 3.46821-2.58423 2.77314-2.48799 2.37749-2.4274 2.09946-2.36323 1.93549-2.2955 1.77154-2.22065 1.64321-2.11728 1.5541-1.98184 1.46499-1.84282 1.42221-1.68955 1.42221-1.52559 1.42221-1.26538 1.51845-1.05151 1.71094-0.883984 1.90342-0.709326 2.18858-0.62378 2.56641-0.627344 2.93711-0.62378 3.26503-0.705762 3.55376-0.869727 3.84248-1.03013 4.05635-1.25112 4.1918-1.53272 4.29516-1.75015 4.34507-2.07095 4.34863-2.49512Z" fill="#619CFF" transform="matrix(1 0 0 1.00171 569.511 480.06)"/><path d="M0.698633 0 0.698633-7.83823 1.66103-7.83823 1.66103 0Z" fill="#619CFF" transform="matrix(1 0 0 1.00171 575.601 480.06)"/><path d="M0.727148-6.72969 0.727148-7.83823 1.68955-7.83823 1.68955-6.72969ZM0.727148 0 0.727148-5.67818 1.68955-5.67818 1.68955 0Z" fill="#619CFF" transform="matrix(1 0 0 1.00171 578.034 480.06)"/><path d="M4.42705-0.698633C4.07061-0.395655 3.72485-0.181787 3.39693-0.0570313 3.06187 0.0677247 2.70898 0.12832 2.33828 0.12832 1.71094 0.12832 1.2333-0.0213867 0.898242-0.32793 0.563184-0.627344 0.395655-1.01944 0.395655-1.49707 0.395655-1.7751 0.45625-2.02818 0.58457-2.2563 0.709326-2.48443 0.876856-2.66977 1.08359-2.81235 1.28677-2.95137 1.51845-3.05474 1.7751-3.12959 1.96401-3.17236 2.24917-3.22227 2.63056-3.27217 3.40762-3.36484 3.97793-3.47534 4.34863-3.60366 4.34863-3.73198 4.3522-3.81397 4.3522-3.85674 4.3522-4.2417 4.25952-4.51972 4.07773-4.68369 3.83179-4.90112 3.46821-5.00806 2.98345-5.01162 2.5272-5.00806 2.19214-4.92964 1.97827-4.7728 1.7644-4.6124 1.604-4.33081 1.5042-3.92803L0.563184-4.05635C0.645166-4.45913 0.787744-4.7835 0.983784-5.033 1.17627-5.27539 1.45786-5.46787 1.83213-5.60332 2.19927-5.73877 2.63056-5.80649 3.12247-5.80649 3.60722-5.80649 3.99931-5.74946 4.30229-5.6354 4.60528-5.52134 4.82984-5.37519 4.97241-5.2041 5.11499-5.02944 5.21479-4.81201 5.27182-4.54825 5.30034-4.38428 5.3146-4.08843 5.31816-3.66425L5.31816-2.38106C5.3146-1.48281 5.33599-0.916068 5.37876-0.680811 5.42154-0.441992 5.50352-0.217431 5.6247 0L4.61953 0C4.51972-0.199609 4.45556-0.431299 4.42705-0.698633ZM4.34863-2.85156C3.99219-2.70542 3.46821-2.58423 2.77314-2.48799 2.37749-2.4274 2.09946-2.36323 1.93549-2.2955 1.77154-2.22065 1.64321-2.11728 1.5541-1.98184 1.46499-1.84282 1.42221-1.68955 1.42221-1.52559 1.42221-1.26538 1.51845-1.05151 1.71094-0.883984 1.90342-0.709326 2.18858-0.62378 2.56641-0.627344 2.93711-0.62378 3.26503-0.705762 3.55376-0.869727 3.84248-1.03013 4.05635-1.25112 4.1918-1.53272 4.29516-1.75015 4.34507-2.07095 4.34863-2.49512Z" fill="#619CFF" transform="matrix(1 0 0 1.00171 580.466 480.06)"/><path d="M6.4374-2.74819 7.47466-2.48799C7.25722-1.63252 6.86514-0.983784 6.30195-0.534668 5.73521-0.0891114 5.0437 0.131885 4.22744 0.13545 3.38266 0.131885 2.69472-0.0356445 2.16719-0.381397 1.63609-0.723584 1.2333-1.2226 0.958837-1.8749 0.680811-2.5272 0.545361-3.22939 0.545361-3.97793 0.545361-4.79419 0.698633-5.50352 1.01231-6.11304 1.32241-6.71899 1.76797-7.18237 2.34541-7.49604 2.91929-7.80971 3.55376-7.96655 4.24526-7.97012 5.02944-7.96655 5.68887-7.76694 6.22353-7.37128 6.7582-6.96851 7.12891-6.40889 7.34278-5.68887L6.31977-5.44648C6.13443-6.01323 5.87065-6.43028 5.52846-6.69405 5.18272-6.95424 4.74785-7.08257 4.22388-7.08613 3.62148-7.08257 3.11533-6.93999 2.71255-6.65127 2.3062-6.35898 2.02461-5.97046 1.86064-5.48569 1.69668-5.00093 1.6147-4.49834 1.6147-3.98506 1.6147-3.31494 1.71094-2.73393 1.90342-2.23491 2.0959-1.73589 2.39888-1.36518 2.81235-1.1228 3.22227-0.876856 3.66425-0.7521 4.14189-0.755664 4.7229-0.7521 5.21479-0.919627 5.61758-1.25826 6.02036-1.58975 6.29483-2.08877 6.4374-2.74819Z" fill="#00BA38" transform="matrix(1 0 0 1.00171 543.953 322.114)"/><path d="M4.42705-0.698633C4.07061-0.395655 3.72485-0.181787 3.39693-0.0570313 3.06187 0.0677247 2.70898 0.12832 2.33828 0.12832 1.71094 0.12832 1.2333-0.0213867 0.898242-0.32793 0.563184-0.627344 0.395655-1.01944 0.395655-1.49707 0.395655-1.7751 0.45625-2.02818 0.58457-2.2563 0.709326-2.48443 0.876856-2.66977 1.08359-2.81235 1.28677-2.95137 1.51845-3.05474 1.7751-3.12959 1.96401-3.17236 2.24917-3.22227 2.63056-3.27217 3.40762-3.36484 3.97793-3.47534 4.34863-3.60366 4.34863-3.73198 4.3522-3.81397 4.3522-3.85674 4.3522-4.2417 4.25952-4.51972 4.07773-4.68369 3.83179-4.90112 3.46821-5.00806 2.98345-5.01162 2.5272-5.00806 2.19214-4.92964 1.97827-4.7728 1.7644-4.6124 1.604-4.33081 1.5042-3.92803L0.563184-4.05635C0.645166-4.45913 0.787744-4.7835 0.983784-5.033 1.17627-5.27539 1.45786-5.46787 1.83213-5.60332 2.19927-5.73877 2.63056-5.80649 3.12247-5.80649 3.60722-5.80649 3.99931-5.74946 4.30229-5.6354 4.60528-5.52134 4.82984-5.37519 4.97241-5.2041 5.11499-5.02944 5.21479-4.81201 5.27182-4.54825 5.30034-4.38428 5.3146-4.08843 5.31816-3.66425L5.31816-2.38106C5.3146-1.48281 5.33599-0.916068 5.37876-0.680811 5.42154-0.441992 5.50352-0.217431 5.6247 0L4.61953 0C4.51972-0.199609 4.45556-0.431299 4.42705-0.698633ZM4.34863-2.85156C3.99219-2.70542 3.46821-2.58423 2.77314-2.48799 2.37749-2.4274 2.09946-2.36323 1.93549-2.2955 1.77154-2.22065 1.64321-2.11728 1.5541-1.98184 1.46499-1.84282 1.42221-1.68955 1.42221-1.52559 1.42221-1.26538 1.51845-1.05151 1.71094-0.883984 1.90342-0.709326 2.18858-0.62378 2.56641-0.627344 2.93711-0.62378 3.26503-0.705762 3.55376-0.869727 3.84248-1.03013 4.05635-1.25112 4.1918-1.53272 4.29516-1.75015 4.34507-2.07095 4.34863-2.49512Z" fill="#00BA38" transform="matrix(1 0 0 1.00171 551.861 322.114)"/><path d="M0.72002 0 0.72002-5.67818 1.58975-5.67818 1.58975-4.86905C2.00322-5.49282 2.60562-5.80649 3.39336-5.80649 3.73198-5.80649 4.04565-5.74234 4.33794-5.62115 4.6231-5.49639 4.84053-5.33599 4.98311-5.13994 5.12569-4.93677 5.22549-4.70151 5.28252-4.42705 5.31816-4.24883 5.33599-3.93516 5.33599-3.49316L5.33599 0 4.37359 0 4.37359-3.45396C4.37359-3.84604 4.33437-4.13833 4.25952-4.33437 4.18467-4.52686 4.05279-4.68013 3.86387-4.79775 3.67139-4.91181 3.44682-4.97241 3.19375-4.97241 2.78028-4.97241 2.4274-4.84053 2.12798-4.58032 1.82857-4.32012 1.67885-3.82822 1.68242-3.10108L1.68242 0Z" fill="#00BA38" transform="matrix(1 0 0 1.00171 557.951 322.114)"/><path d="M4.42705-0.698633C4.07061-0.395655 3.72485-0.181787 3.39693-0.0570313 3.06187 0.0677247 2.70898 0.12832 2.33828 0.12832 1.71094 0.12832 1.2333-0.0213867 0.898242-0.32793 0.563184-0.627344 0.395655-1.01944 0.395655-1.49707 0.395655-1.7751 0.45625-2.02818 0.58457-2.2563 0.709326-2.48443 0.876856-2.66977 1.08359-2.81235 1.28677-2.95137 1.51845-3.05474 1.7751-3.12959 1.96401-3.17236 2.24917-3.22227 2.63056-3.27217 3.40762-3.36484 3.97793-3.47534 4.34863-3.60366 4.34863-3.73198 4.3522-3.81397 4.3522-3.85674 4.3522-4.2417 4.25952-4.51972 4.07773-4.68369 3.83179-4.90112 3.46821-5.00806 2.98345-5.01162 2.5272-5.00806 2.19214-4.92964 1.97827-4.7728 1.7644-4.6124 1.604-4.33081 1.5042-3.92803L0.563184-4.05635C0.645166-4.45913 0.787744-4.7835 0.983784-5.033 1.17627-5.27539 1.45786-5.46787 1.83213-5.60332 2.19927-5.73877 2.63056-5.80649 3.12247-5.80649 3.60722-5.80649 3.99931-5.74946 4.30229-5.6354 4.60528-5.52134 4.82984-5.37519 4.97241-5.2041 5.11499-5.02944 5.21479-4.81201 5.27182-4.54825 5.30034-4.38428 5.3146-4.08843 5.31816-3.66425L5.31816-2.38106C5.3146-1.48281 5.33599-0.916068 5.37876-0.680811 5.42154-0.441992 5.50352-0.217431 5.6247 0L4.61953 0C4.51972-0.199609 4.45556-0.431299 4.42705-0.698633ZM4.34863-2.85156C3.99219-2.70542 3.46821-2.58423 2.77314-2.48799 2.37749-2.4274 2.09946-2.36323 1.93549-2.2955 1.77154-2.22065 1.64321-2.11728 1.5541-1.98184 1.46499-1.84282 1.42221-1.68955 1.42221-1.52559 1.42221-1.26538 1.51845-1.05151 1.71094-0.883984 1.90342-0.709326 2.18858-0.62378 2.56641-0.627344 2.93711-0.62378 3.26503-0.705762 3.55376-0.869727 3.84248-1.03013 4.05635-1.25112 4.1918-1.53272 4.29516-1.75015 4.34507-2.07095 4.34863-2.49512Z" fill="#00BA38" transform="matrix(1 0 0 1.00171 564.041 322.114)"/><path d="M4.40566 0 4.40566-0.716455C4.04209-0.153272 3.51099 0.12832 2.81592 0.12832 2.36323 0.12832 1.94619 0.00356445 1.56836-0.245947 1.1834-0.495459 0.891114-0.841211 0.684375-1.29033 0.477637-1.73233 0.374267-2.24917 0.374267-2.83374 0.374267-3.40049 0.466944-3.91377 0.655859-4.37715 0.844775-4.83696 1.12993-5.18984 1.50776-5.43579 1.8856-5.68174 2.3062-5.80649 2.77314-5.80649 3.11177-5.80649 3.41831-5.73164 3.68921-5.58906 3.95655-5.44292 4.17398-5.25757 4.3415-5.02588L4.3415-7.83823 5.29678-7.83823 5.29678 0ZM1.36162-2.83374C1.35806-2.10659 1.51133-1.56123 1.82143-1.20122 2.12441-0.841211 2.48799-0.662989 2.90859-0.662989 3.3292-0.662989 3.68564-0.834082 3.97793-1.17984 4.27022-1.52202 4.41635-2.046 4.41992-2.75175 4.41635-3.52881 4.26665-4.09912 3.9708-4.46626 3.66782-4.82627 3.30069-5.00806 2.86582-5.01162 2.43809-5.00806 2.07807-4.8334 1.79292-4.48765 1.50063-4.13477 1.35806-3.58584 1.36162-2.83374Z" fill="#00BA38" transform="matrix(1 0 0 1.00171 570.131 322.114)"/><path d="M4.42705-0.698633C4.07061-0.395655 3.72485-0.181787 3.39693-0.0570313 3.06187 0.0677247 2.70898 0.12832 2.33828 0.12832 1.71094 0.12832 1.2333-0.0213867 0.898242-0.32793 0.563184-0.627344 0.395655-1.01944 0.395655-1.49707 0.395655-1.7751 0.45625-2.02818 0.58457-2.2563 0.709326-2.48443 0.876856-2.66977 1.08359-2.81235 1.28677-2.95137 1.51845-3.05474 1.7751-3.12959 1.96401-3.17236 2.24917-3.22227 2.63056-3.27217 3.40762-3.36484 3.97793-3.47534 4.34863-3.60366 4.34863-3.73198 4.3522-3.81397 4.3522-3.85674 4.3522-4.2417 4.25952-4.51972 4.07773-4.68369 3.83179-4.90112 3.46821-5.00806 2.98345-5.01162 2.5272-5.00806 2.19214-4.92964 1.97827-4.7728 1.7644-4.6124 1.604-4.33081 1.5042-3.92803L0.563184-4.05635C0.645166-4.45913 0.787744-4.7835 0.983784-5.033 1.17627-5.27539 1.45786-5.46787 1.83213-5.60332 2.19927-5.73877 2.63056-5.80649 3.12247-5.80649 3.60722-5.80649 3.99931-5.74946 4.30229-5.6354 4.60528-5.52134 4.82984-5.37519 4.97241-5.2041 5.11499-5.02944 5.21479-4.81201 5.27182-4.54825 5.30034-4.38428 5.3146-4.08843 5.31816-3.66425L5.31816-2.38106C5.3146-1.48281 5.33599-0.916068 5.37876-0.680811 5.42154-0.441992 5.50352-0.217431 5.6247 0L4.61953 0C4.51972-0.199609 4.45556-0.431299 4.42705-0.698633ZM4.34863-2.85156C3.99219-2.70542 3.46821-2.58423 2.77314-2.48799 2.37749-2.4274 2.09946-2.36323 1.93549-2.2955 1.77154-2.22065 1.64321-2.11728 1.5541-1.98184 1.46499-1.84282 1.42221-1.68955 1.42221-1.52559 1.42221-1.26538 1.51845-1.05151 1.71094-0.883984 1.90342-0.709326 2.18858-0.62378 2.56641-0.627344 2.93711-0.62378 3.26503-0.705762 3.55376-0.869727 3.84248-1.03013 4.05635-1.25112 4.1918-1.53272 4.29516-1.75015 4.34507-2.07095 4.34863-2.49512Z" fill="#00BA38" transform="matrix(1 0 0 1.00171 576.221 322.114)"/><path d="M4.5126-3.07256 4.5126-3.99219 7.83467-3.99931 7.83467-1.09072C7.32139-0.684375 6.79741-0.377833 6.25562-0.171094 5.71382 0.0320801 5.15776 0.131885 4.58745 0.13545 3.81753 0.131885 3.11533-0.0285156 2.48799-0.36001 1.85708-0.687939 1.383-1.16557 1.06577-1.78936 0.741406-2.41313 0.581006-3.11177 0.58457-3.88169 0.581006-4.64448 0.741406-5.35381 1.0622-6.0168 1.37944-6.67266 1.83925-7.16455 2.43809-7.48892 3.03691-7.80616 3.72485-7.96655 4.50547-7.97012 5.07221-7.96655 5.58549-7.87388 6.04174-7.69565 6.49799-7.5103 6.858-7.25722 7.12178-6.9293 7.38198-6.60137 7.57803-6.17363 7.71347-5.64609L6.77959-5.38945C6.6584-5.78867 6.51226-6.10234 6.34116-6.33047 6.1665-6.55859 5.917-6.74038 5.59263-6.87939 5.2647-7.01484 4.90469-7.08257 4.5126-7.08613 4.03497-7.08257 3.62505-7.01128 3.28286-6.8687 2.93711-6.72256 2.65552-6.53365 2.44522-6.29839 2.23135-6.06313 2.06738-5.80293 1.95332-5.5249 1.75015-5.03657 1.65034-4.5126 1.65391-3.94585 1.65034-3.24721 1.77154-2.66265 2.01392-2.19214 2.25273-1.72163 2.60205-1.37232 3.06187-1.14419 3.52168-0.916068 4.01001-0.802002 4.52686-0.802002 4.97597-0.802002 5.4144-0.887549 5.8457-1.05865 6.26987-1.22974 6.59424-1.41509 6.81523-1.6147L6.81523-3.07256Z" fill="#F8766D" transform="matrix(1 0 0 1.00171 543.953 190.493)"/><path d="M4.60884-1.82857 5.60332-1.70381C5.44648-1.1228 5.1542-0.673681 4.73003-0.352881 4.30586-0.0320801 3.76406 0.12832 3.1082 0.12832 2.27412 0.12832 1.6147-0.124756 1.12993-0.638037 0.638037-1.14419 0.395655-1.86421 0.399219-2.79096 0.395655-3.74624 0.641602-4.48765 1.13706-5.01518 1.62539-5.54273 2.26343-5.80649 3.05117-5.80649 3.8104-5.80649 4.43062-5.54628 4.91181-5.02944 5.39302-4.5126 5.6354-3.78545 5.6354-2.85156 5.6354-2.79096 5.63184-2.70542 5.63184-2.59492L1.39727-2.59492C1.42578-1.96758 1.604-1.48994 1.92481-1.15845 2.24204-0.826953 2.63769-0.662989 3.11177-0.662989 3.46465-0.662989 3.76406-0.755664 4.01714-0.941016 4.26309-1.12637 4.46269-1.42221 4.60884-1.82857ZM1.44717-3.38623 4.61953-3.38623C4.57675-3.85674 4.45556-4.21674 4.25595-4.45913 3.94941-4.82984 3.55019-5.01518 3.06543-5.01518 2.61987-5.01518 2.24917-4.86548 1.94976-4.56963 1.64678-4.27378 1.47924-3.87813 1.44717-3.38623Z" fill="#F8766D" transform="matrix(1 0 0 1.00171 552.471 190.493)"/><path d="M0.712891 0 0.712891-5.67818 1.57549-5.67818 1.57549-4.81914C1.79648-5.21836 1.99966-5.48569 2.18858-5.61401 2.37392-5.74234 2.58066-5.80649 2.80878-5.80649 3.12959-5.80649 3.46109-5.70312 3.79615-5.49639L3.46465-4.60528C3.22939-4.74072 2.99414-4.81201 2.75889-4.81201 2.54859-4.81201 2.35967-4.74785 2.19214-4.6231 2.02104-4.49477 1.89985-4.32012 1.83213-4.09556 1.72519-3.75337 1.67173-3.3791 1.6753-2.97275L1.6753 0Z" fill="#F8766D" transform="matrix(1 0 0 1.00171 558.561 190.493)"/><path d="M0.72002 0 0.72002-5.67818 1.58262-5.67818 1.58262-4.8833C1.76084-5.1542 1.99609-5.37876 2.29194-5.54985 2.5878-5.72095 2.92641-5.80649 3.30424-5.80649 3.72485-5.80649 4.06704-5.71738 4.33794-5.54273 4.60171-5.36806 4.79419-5.12569 4.90826-4.81201 5.35737-5.475 5.94194-5.80649 6.66196-5.80649 7.22515-5.80649 7.65644-5.64966 7.95943-5.33599 8.26241-5.02232 8.41568-4.54111 8.41568-3.89951L8.41568 0 7.45684 0 7.45684-3.57872C7.45327-3.9601 7.42119-4.23813 7.36416-4.40923 7.3-4.57675 7.18951-4.7122 7.02554-4.81557 6.86157-4.91894 6.66909-4.97241 6.4481-4.97241 6.04888-4.97241 5.71738-4.83696 5.45361-4.57319 5.18984-4.30586 5.05796-3.88169 5.05796-3.30069L5.05796 0 4.09556 0 4.09556-3.68921C4.09556-4.11694 4.01714-4.43774 3.8603-4.65162 3.70346-4.86548 3.44682-4.97241 3.09038-4.97241 2.81948-4.97241 2.56641-4.90112 2.33828-4.75854 2.10659-4.61596 1.94263-4.40566 1.83925-4.1312 1.73233-3.85674 1.67885-3.46109 1.68242-2.94424L1.68242 0Z" fill="#F8766D" transform="matrix(1 0 0 1.00171 562.207 190.493)"/><path d="M4.42705-0.698633C4.07061-0.395655 3.72485-0.181787 3.39693-0.0570313 3.06187 0.0677247 2.70898 0.12832 2.33828 0.12832 1.71094 0.12832 1.2333-0.0213867 0.898242-0.32793 0.563184-0.627344 0.395655-1.01944 0.395655-1.49707 0.395655-1.7751 0.45625-2.02818 0.58457-2.2563 0.709326-2.48443 0.876856-2.66977 1.08359-2.81235 1.28677-2.95137 1.51845-3.05474 1.7751-3.12959 1.96401-3.17236 2.24917-3.22227 2.63056-3.27217 3.40762-3.36484 3.97793-3.47534 4.34863-3.60366 4.34863-3.73198 4.3522-3.81397 4.3522-3.85674 4.3522-4.2417 4.25952-4.51972 4.07773-4.68369 3.83179-4.90112 3.46821-5.00806 2.98345-5.01162 2.5272-5.00806 2.19214-4.92964 1.97827-4.7728 1.7644-4.6124 1.604-4.33081 1.5042-3.92803L0.563184-4.05635C0.645166-4.45913 0.787744-4.7835 0.983784-5.033 1.17627-5.27539 1.45786-5.46787 1.83213-5.60332 2.19927-5.73877 2.63056-5.80649 3.12247-5.80649 3.60722-5.80649 3.99931-5.74946 4.30229-5.6354 4.60528-5.52134 4.82984-5.37519 4.97241-5.2041 5.11499-5.02944 5.21479-4.81201 5.27182-4.54825 5.30034-4.38428 5.3146-4.08843 5.31816-3.66425L5.31816-2.38106C5.3146-1.48281 5.33599-0.916068 5.37876-0.680811 5.42154-0.441992 5.50352-0.217431 5.6247 0L4.61953 0C4.51972-0.199609 4.45556-0.431299 4.42705-0.698633ZM4.34863-2.85156C3.99219-2.70542 3.46821-2.58423 2.77314-2.48799 2.37749-2.4274 2.09946-2.36323 1.93549-2.2955 1.77154-2.22065 1.64321-2.11728 1.5541-1.98184 1.46499-1.84282 1.42221-1.68955 1.42221-1.52559 1.42221-1.26538 1.51845-1.05151 1.71094-0.883984 1.90342-0.709326 2.18858-0.62378 2.56641-0.627344 2.93711-0.62378 3.26503-0.705762 3.55376-0.869727 3.84248-1.03013 4.05635-1.25112 4.1918-1.53272 4.29516-1.75015 4.34507-2.07095 4.34863-2.49512Z" fill="#F8766D" transform="matrix(1 0 0 1.00171 571.328 190.493)"/><path d="M0.72002 0 0.72002-5.67818 1.58975-5.67818 1.58975-4.86905C2.00322-5.49282 2.60562-5.80649 3.39336-5.80649 3.73198-5.80649 4.04565-5.74234 4.33794-5.62115 4.6231-5.49639 4.84053-5.33599 4.98311-5.13994 5.12569-4.93677 5.22549-4.70151 5.28252-4.42705 5.31816-4.24883 5.33599-3.93516 5.33599-3.49316L5.33599 0 4.37359 0 4.37359-3.45396C4.37359-3.84604 4.33437-4.13833 4.25952-4.33437 4.18467-4.52686 4.05279-4.68013 3.86387-4.79775 3.67139-4.91181 3.44682-4.97241 3.19375-4.97241 2.78028-4.97241 2.4274-4.84053 2.12798-4.58032 1.82857-4.32012 1.67885-3.82822 1.68242-3.10108L1.68242 0Z" fill="#F8766D" transform="matrix(1 0 0 1.00171 577.418 190.493)"/><path d="M0.677247 2.18858 0.570312 1.2832C0.780615 1.34023 0.965963 1.36875 1.1228 1.36875 1.33667 1.36875 1.50776 1.33311 1.63609 1.26181 1.7644 1.19053 1.86778 1.09072 1.95332 0.962405 2.01035 0.866162 2.11016 0.627344 2.24561 0.245947 2.26343 0.188916 2.29194 0.110498 2.33115 0.0106934L0.178223-5.67818 1.21191-5.67818 2.39531-2.38819C2.54502-1.97115 2.68047-1.53272 2.80878-1.07647 2.91572-1.5149 3.0476-1.94619 3.20088-2.3668L4.41635-5.67818 5.37876-5.67818 3.2187 0.0962405C2.98701 0.72002 2.80523 1.14775 2.68047 1.383 2.50581 1.70024 2.30977 1.93194 2.09234 2.08164 1.86778 2.22422 1.604 2.29907 1.29747 2.30264 1.10854 2.29907 0.901806 2.25986 0.677247 2.18858Z" fill="#F8766D" transform="matrix(1 0 0 1.00171 583.508 190.493)"/><path d="M4.07773 0 3.11533 0 3.11533-6.13086C2.88365-5.90986 2.58066-5.68887 2.20283-5.47143 1.825-5.24688 1.48638-5.08291 1.19053-4.97241L1.19053-5.90273C1.72876-6.15225 2.19927-6.45879 2.60205-6.82236 3.00484-7.18237 3.28999-7.53169 3.45752-7.87031L4.07773-7.87031Z" transform="matrix(1 0 0 1.00171 70.94 183.909)"/><path d="M5.51064-0.926753 5.51064 0 0.331494 0C0.324365-0.231689 0.36001-0.452686 0.441992-0.670117 0.573877-1.01944 0.78418-1.36875 1.07647-1.71094 1.36162-2.05313 1.78222-2.44878 2.33828-2.8979 3.18662-3.59654 3.76406-4.14903 4.06347-4.55537 4.36289-4.96172 4.5126-5.34668 4.5126-5.71738 4.5126-6.09522 4.37359-6.41602 4.10268-6.67978 3.82466-6.93642 3.47178-7.06831 3.03691-7.07188 2.57353-7.06831 2.20283-6.9293 1.92481-6.65484 1.64678-6.37325 1.5042-5.98828 1.5042-5.50352L0.513281-5.60332C0.577442-6.3376 0.830517-6.89721 1.27608-7.28931 1.71451-7.67427 2.30977-7.87031 3.0583-7.87031 3.80684-7.87031 4.4021-7.66001 4.84409-7.24297 5.28252-6.82593 5.49995-6.30908 5.50352-5.696 5.49995-5.37876 5.43579-5.07221 5.31103-4.76924 5.17915-4.46269 4.96529-4.14189 4.66944-3.8104 4.37002-3.47178 3.87813-3.01196 3.18662-2.43095 2.60918-1.94263 2.23847-1.6147 2.07451-1.4436 1.91055-1.27251 1.7751-1.09785 1.66816-0.926753Z" transform="matrix(1 0 0 1.00171 64.8484 262.882)"/><path d="M0.45625-2.05313 1.46499-2.13867C1.53628-1.64678 1.70737-1.27608 1.9854-1.02656 2.2563-0.777051 2.5878-0.652295 2.97275-0.655859 3.43613-0.652295 3.82822-0.826953 4.14903-1.17984 4.46983-1.52559 4.63023-1.98897 4.63023-2.57353 4.63023-3.11533 4.47339-3.55019 4.16685-3.871 3.85674-4.18823 3.45396-4.34507 2.9585-4.34863 2.64483-4.34507 2.3668-4.27378 2.11728-4.13477 1.86778-3.99219 1.67173-3.8104 1.52915-3.58584L0.627344-3.70703 1.383-7.7313 5.28252-7.7313 5.28252-6.81167 2.15293-6.81167 1.73233-4.70508C2.20283-5.033 2.69472-5.19697 3.21514-5.19697 3.89595-5.19697 4.47339-4.95815 4.94747-4.48408 5.4144-4.01001 5.64966-3.40049 5.65322-2.65908 5.64966-1.94619 5.44292-1.33311 5.033-0.819825 4.52686-0.181787 3.84248 0.131885 2.97275 0.13545 2.25986 0.131885 1.6753-0.0641602 1.22617-0.463379 0.769922-0.859033 0.513281-1.39014 0.45625-2.05313Z" transform="matrix(1 0 0 1.00171 70.9383 262.882)"/><path d="M0.45625-2.05313 1.46499-2.13867C1.53628-1.64678 1.70737-1.27608 1.9854-1.02656 2.2563-0.777051 2.5878-0.652295 2.97275-0.655859 3.43613-0.652295 3.82822-0.826953 4.14903-1.17984 4.46983-1.52559 4.63023-1.98897 4.63023-2.57353 4.63023-3.11533 4.47339-3.55019 4.16685-3.871 3.85674-4.18823 3.45396-4.34507 2.9585-4.34863 2.64483-4.34507 2.3668-4.27378 2.11728-4.13477 1.86778-3.99219 1.67173-3.8104 1.52915-3.58584L0.627344-3.70703 1.383-7.7313 5.28252-7.7313 5.28252-6.81167 2.15293-6.81167 1.73233-4.70508C2.20283-5.033 2.69472-5.19697 3.21514-5.19697 3.89595-5.19697 4.47339-4.95815 4.94747-4.48408 5.4144-4.01001 5.64966-3.40049 5.65322-2.65908 5.64966-1.94619 5.44292-1.33311 5.033-0.819825 4.52686-0.181787 3.84248 0.131885 2.97275 0.13545 2.25986 0.131885 1.6753-0.0641602 1.22617-0.463379 0.769922-0.859033 0.513281-1.39014 0.45625-2.05313Z" transform="matrix(1 0 0 1.00171 64.8484 345.147)"/><path d="M0.45625-3.86387C0.452686-4.78706 0.548926-5.53203 0.741406-6.10234 0.930321-6.66553 1.21191-7.10396 1.58975-7.41049 1.96045-7.71704 2.43452-7.87031 3.0084-7.87031 3.429-7.87031 3.79971-7.78477 4.11694-7.61724 4.43062-7.44615 4.69082-7.20019 4.90112-6.88296 5.1043-6.56216 5.26826-6.17363 5.38945-5.71738 5.50708-5.25757 5.56412-4.64092 5.56767-3.86387 5.56412-2.94424 5.47143-2.20283 5.28252-1.63965 5.09003-1.0729 4.80488-0.634473 4.43418-0.32793 4.05635-0.0178223 3.58227 0.131885 3.0084 0.13545 2.24917 0.131885 1.65747-0.13545 1.22974-0.677247 0.712891-1.32954 0.452686-2.39174 0.45625-3.86387ZM1.4436-3.86387C1.4436-2.5771 1.59331-1.72163 1.89273-1.2939 2.19214-0.866162 2.56284-0.652295 3.0084-0.655859 3.44682-0.652295 3.81753-0.866162 4.12407-1.29747 4.42349-1.72163 4.57675-2.5771 4.57675-3.86387 4.57675-5.1542 4.42349-6.01323 4.12407-6.4374 3.81753-6.858 3.44326-7.06831 3.00127-7.07188 2.55571-7.06831 2.20283-6.88296 1.93906-6.51226 1.60757-6.03462 1.4436-5.15063 1.4436-3.86387Z" transform="matrix(1 0 0 1.00171 70.9383 345.147)"/><path d="M0.520411-6.81167 0.520411-7.73486 5.59263-7.73486 5.59263-6.98633C5.0936-6.45523 4.59814-5.74946 4.10625-4.86905 3.61436-3.98862 3.23653-3.08326 2.97275-2.15293 2.78028-1.49351 2.65552-0.777051 2.60205 0L1.6147 0C1.62539-0.61665 1.74658-1.36162 1.97827-2.23491 2.2064-3.10464 2.53789-3.94585 2.97275-4.75854 3.40762-5.57124 3.86743-6.25562 4.35576-6.81167Z" transform="matrix(1 0 0 1.00171 64.8484 427.41)"/><path d="M0.45625-2.05313 1.46499-2.13867C1.53628-1.64678 1.70737-1.27608 1.9854-1.02656 2.2563-0.777051 2.5878-0.652295 2.97275-0.655859 3.43613-0.652295 3.82822-0.826953 4.14903-1.17984 4.46983-1.52559 4.63023-1.98897 4.63023-2.57353 4.63023-3.11533 4.47339-3.55019 4.16685-3.871 3.85674-4.18823 3.45396-4.34507 2.9585-4.34863 2.64483-4.34507 2.3668-4.27378 2.11728-4.13477 1.86778-3.99219 1.67173-3.8104 1.52915-3.58584L0.627344-3.70703 1.383-7.7313 5.28252-7.7313 5.28252-6.81167 2.15293-6.81167 1.73233-4.70508C2.20283-5.033 2.69472-5.19697 3.21514-5.19697 3.89595-5.19697 4.47339-4.95815 4.94747-4.48408 5.4144-4.01001 5.64966-3.40049 5.65322-2.65908 5.64966-1.94619 5.44292-1.33311 5.033-0.819825 4.52686-0.181787 3.84248 0.131885 2.97275 0.13545 2.25986 0.131885 1.6753-0.0641602 1.22617-0.463379 0.769922-0.859033 0.513281-1.39014 0.45625-2.05313Z" transform="matrix(1 0 0 1.00171 70.9383 427.41)"/><path d="M4.07773 0 3.11533 0 3.11533-6.13086C2.88365-5.90986 2.58066-5.68887 2.20283-5.47143 1.825-5.24688 1.48638-5.08291 1.19053-4.97241L1.19053-5.90273C1.72876-6.15225 2.19927-6.45879 2.60205-6.82236 3.00484-7.18237 3.28999-7.53169 3.45752-7.87031L4.07773-7.87031Z" transform="matrix(1 0 0 1.00171 58.7568 509.675)"/><path d="M0.45625-3.86387C0.452686-4.78706 0.548926-5.53203 0.741406-6.10234 0.930321-6.66553 1.21191-7.10396 1.58975-7.41049 1.96045-7.71704 2.43452-7.87031 3.0084-7.87031 3.429-7.87031 3.79971-7.78477 4.11694-7.61724 4.43062-7.44615 4.69082-7.20019 4.90112-6.88296 5.1043-6.56216 5.26826-6.17363 5.38945-5.71738 5.50708-5.25757 5.56412-4.64092 5.56767-3.86387 5.56412-2.94424 5.47143-2.20283 5.28252-1.63965 5.09003-1.0729 4.80488-0.634473 4.43418-0.32793 4.05635-0.0178223 3.58227 0.131885 3.0084 0.13545 2.24917 0.131885 1.65747-0.13545 1.22974-0.677247 0.712891-1.32954 0.452686-2.39174 0.45625-3.86387ZM1.4436-3.86387C1.4436-2.5771 1.59331-1.72163 1.89273-1.2939 2.19214-0.866162 2.56284-0.652295 3.0084-0.655859 3.44682-0.652295 3.81753-0.866162 4.12407-1.29747 4.42349-1.72163 4.57675-2.5771 4.57675-3.86387 4.57675-5.1542 4.42349-6.01323 4.12407-6.4374 3.81753-6.858 3.44326-7.06831 3.00127-7.07188 2.55571-7.06831 2.20283-6.88296 1.93906-6.51226 1.60757-6.03462 1.4436-5.15063 1.4436-3.86387Z" transform="matrix(1 0 0 1.00171 64.8466 509.675)"/><path d="M0.45625-3.86387C0.452686-4.78706 0.548926-5.53203 0.741406-6.10234 0.930321-6.66553 1.21191-7.10396 1.58975-7.41049 1.96045-7.71704 2.43452-7.87031 3.0084-7.87031 3.429-7.87031 3.79971-7.78477 4.11694-7.61724 4.43062-7.44615 4.69082-7.20019 4.90112-6.88296 5.1043-6.56216 5.26826-6.17363 5.38945-5.71738 5.50708-5.25757 5.56412-4.64092 5.56767-3.86387 5.56412-2.94424 5.47143-2.20283 5.28252-1.63965 5.09003-1.0729 4.80488-0.634473 4.43418-0.32793 4.05635-0.0178223 3.58227 0.131885 3.0084 0.13545 2.24917 0.131885 1.65747-0.13545 1.22974-0.677247 0.712891-1.32954 0.452686-2.39174 0.45625-3.86387ZM1.4436-3.86387C1.4436-2.5771 1.59331-1.72163 1.89273-1.2939 2.19214-0.866162 2.56284-0.652295 3.0084-0.655859 3.44682-0.652295 3.81753-0.866162 4.12407-1.29747 4.42349-1.72163 4.57675-2.5771 4.57675-3.86387 4.57675-5.1542 4.42349-6.01323 4.12407-6.4374 3.81753-6.858 3.44326-7.06831 3.00127-7.07188 2.55571-7.06831 2.20283-6.88296 1.93906-6.51226 1.60757-6.03462 1.4436-5.15063 1.4436-3.86387Z" transform="matrix(1 0 0 1.00171 70.9365 509.675)"/><path d="M51.6632 374.482 570.862 374.482" stroke="#000000" stroke-width="0.681533" stroke-linejoin="round" stroke-miterlimit="10" fill="none" transform="matrix(1 0 0 1.00171 33 147.079)"/><path d="M75.2635 379.935 75.2635 374.482" stroke="#000000" stroke-width="0.486809" stroke-linejoin="round" stroke-miterlimit="10" fill="none" transform="matrix(1 0 0 1.00171 33 147.079)"/><path d="M220.494 379.935 220.494 374.482" stroke="#000000" stroke-width="0.486809" stroke-linejoin="round" stroke-miterlimit="10" fill="none" transform="matrix(1 0 0 1.00171 33 147.079)"/><path d="M365.724 379.935 365.724 374.482" stroke="#000000" stroke-width="0.486809" stroke-linejoin="round" stroke-miterlimit="10" fill="none" transform="matrix(1 0 0 1.00171 33 147.079)"/><path d="M510.953 379.935 510.953 374.482" stroke="#000000" stroke-width="0.486809" stroke-linejoin="round" stroke-miterlimit="10" fill="none" transform="matrix(1 0 0 1.00171 33 147.079)"/><path d="M4.07773 0 3.11533 0 3.11533-6.13086C2.88365-5.90986 2.58066-5.68887 2.20283-5.47143 1.825-5.24688 1.48638-5.08291 1.19053-4.97241L1.19053-5.90273C1.72876-6.15225 2.19927-6.45879 2.60205-6.82236 3.00484-7.18237 3.28999-7.53169 3.45752-7.87031L4.07773-7.87031Z" transform="matrix(1 0 0 1.00171 96.0837 537.703)"/><path d="M0.598828-1.81075 1.52559-1.89628C1.59688-1.46142 1.74658-1.14775 1.97115-0.95171 2.18858-0.7521 2.47373-0.652295 2.82305-0.655859 3.11533-0.652295 3.37197-0.72002 3.6001-0.859033 3.82109-0.99092 4.00644-1.17271 4.14903-1.40083 4.2916-1.62896 4.40923-1.93549 4.50547-2.32046 4.60171-2.70542 4.65162-3.09751 4.65162-3.49673 4.65162-3.53951 4.64805-3.60366 4.64805-3.68921 4.44844-3.38266 4.18467-3.13315 3.85674-2.94424 3.52168-2.75175 3.16167-2.65552 2.77314-2.65908 2.12441-2.65552 1.57549-2.89077 1.12993-3.36484 0.677247-3.83179 0.452686-4.45201 0.45625-5.22549 0.452686-6.0168 0.687939-6.6584 1.15845-7.14316 1.62539-7.62793 2.21352-7.87031 2.91929-7.87031 3.429-7.87031 3.89238-7.7313 4.31655-7.45684 4.73716-7.18237 5.05796-6.79029 5.27896-6.28413 5.49639-5.77441 5.60688-5.04014 5.61045-4.07773 5.60688-3.07612 5.49995-2.27768 5.28252-1.68599 5.06153-1.09072 4.73716-0.641602 4.30943-0.331494 3.88169-0.0213867 3.3791 0.131885 2.80166 0.13545 2.18858 0.131885 1.68599-0.0356445 1.29747-0.374267 0.908936-0.716455 0.677247-1.19409 0.598828-1.81075ZM4.54111-5.27182C4.53755-5.82431 4.39141-6.26274 4.09912-6.58711 3.80327-6.90791 3.45039-7.06831 3.03691-7.07188 2.60918-7.06831 2.23491-6.89365 1.91767-6.5479 1.60044-6.19502 1.4436-5.74234 1.4436-5.18984 1.4436-4.68726 1.59331-4.28091 1.89273-3.97437 2.19214-3.66069 2.56284-3.50742 3.0084-3.50742 3.45396-3.50742 3.82109-3.66069 4.10982-3.97437 4.39497-4.28091 4.53755-4.71577 4.54111-5.27182Z" transform="matrix(1 0 0 1.00171 102.174 537.703)"/><path d="M5.44648-5.917 4.49122-5.8457C4.40566-6.21641 4.28447-6.49087 4.12764-6.66553 3.86387-6.93999 3.54306-7.079 3.16523-7.079 2.85869-7.079 2.5878-6.99345 2.35967-6.82236 2.05313-6.60137 1.81431-6.27701 1.63965-5.85283 1.46499-5.42866 1.37588-4.82627 1.36875-4.04209 1.60044-4.39141 1.88203-4.65162 2.22065-4.82627 2.55215-4.9938 2.90503-5.07935 3.27217-5.08291 3.91377-5.07935 4.45913-4.84409 4.91181-4.37359 5.36094-3.90307 5.58549-3.29356 5.58906-2.54502 5.58549-2.05313 5.47857-1.59331 5.26826-1.17271 5.05439-0.748536 4.76568-0.427734 4.39497-0.203174 4.02427 0.0213867 3.60366 0.131885 3.13315 0.13545 2.33115 0.131885 1.6753-0.1604 1.17271-0.748536 0.662989-1.34023 0.409912-2.31333 0.413477-3.66782 0.409912-5.17915 0.691504-6.28056 1.25112-6.97207 1.73589-7.5709 2.39174-7.87031 3.22227-7.87031 3.83891-7.87031 4.34507-7.69565 4.74072-7.34991 5.13281-7.00415 5.36806-6.52651 5.44648-5.917ZM1.51845-2.53789C1.51845-2.2064 1.58618-1.88916 1.72876-1.58618 1.86421-1.2832 2.06382-1.05151 2.32046-0.894678 2.57353-0.730713 2.83731-0.652295 3.11533-0.655859 3.52168-0.652295 3.871-0.81626 4.16685-1.14775 4.45556-1.47212 4.60171-1.91767 4.60528-2.48799 4.60171-3.02622 4.45913-3.45396 4.17041-3.76763 3.87813-4.07773 3.51455-4.23457 3.07969-4.23457 2.64483-4.23457 2.27412-4.07773 1.97115-3.76763 1.66816-3.45396 1.51845-3.04405 1.51845-2.53789Z" transform="matrix(1 0 0 1.00171 108.263 537.703)"/><path d="M0.45625-3.86387C0.452686-4.78706 0.548926-5.53203 0.741406-6.10234 0.930321-6.66553 1.21191-7.10396 1.58975-7.41049 1.96045-7.71704 2.43452-7.87031 3.0084-7.87031 3.429-7.87031 3.79971-7.78477 4.11694-7.61724 4.43062-7.44615 4.69082-7.20019 4.90112-6.88296 5.1043-6.56216 5.26826-6.17363 5.38945-5.71738 5.50708-5.25757 5.56412-4.64092 5.56767-3.86387 5.56412-2.94424 5.47143-2.20283 5.28252-1.63965 5.09003-1.0729 4.80488-0.634473 4.43418-0.32793 4.05635-0.0178223 3.58227 0.131885 3.0084 0.13545 2.24917 0.131885 1.65747-0.13545 1.22974-0.677247 0.712891-1.32954 0.452686-2.39174 0.45625-3.86387ZM1.4436-3.86387C1.4436-2.5771 1.59331-1.72163 1.89273-1.2939 2.19214-0.866162 2.56284-0.652295 3.0084-0.655859 3.44682-0.652295 3.81753-0.866162 4.12407-1.29747 4.42349-1.72163 4.57675-2.5771 4.57675-3.86387 4.57675-5.1542 4.42349-6.01323 4.12407-6.4374 3.81753-6.858 3.44326-7.06831 3.00127-7.07188 2.55571-7.06831 2.20283-6.88296 1.93906-6.51226 1.60757-6.03462 1.4436-5.15063 1.4436-3.86387Z" transform="matrix(1 0 0 1.00171 114.353 537.703)"/><path d="M4.07773 0 3.11533 0 3.11533-6.13086C2.88365-5.90986 2.58066-5.68887 2.20283-5.47143 1.825-5.24688 1.48638-5.08291 1.19053-4.97241L1.19053-5.90273C1.72876-6.15225 2.19927-6.45879 2.60205-6.82236 3.00484-7.18237 3.28999-7.53169 3.45752-7.87031L4.07773-7.87031Z" transform="matrix(1 0 0 1.00171 241.314 537.703)"/><path d="M0.598828-1.81075 1.52559-1.89628C1.59688-1.46142 1.74658-1.14775 1.97115-0.95171 2.18858-0.7521 2.47373-0.652295 2.82305-0.655859 3.11533-0.652295 3.37197-0.72002 3.6001-0.859033 3.82109-0.99092 4.00644-1.17271 4.14903-1.40083 4.2916-1.62896 4.40923-1.93549 4.50547-2.32046 4.60171-2.70542 4.65162-3.09751 4.65162-3.49673 4.65162-3.53951 4.64805-3.60366 4.64805-3.68921 4.44844-3.38266 4.18467-3.13315 3.85674-2.94424 3.52168-2.75175 3.16167-2.65552 2.77314-2.65908 2.12441-2.65552 1.57549-2.89077 1.12993-3.36484 0.677247-3.83179 0.452686-4.45201 0.45625-5.22549 0.452686-6.0168 0.687939-6.6584 1.15845-7.14316 1.62539-7.62793 2.21352-7.87031 2.91929-7.87031 3.429-7.87031 3.89238-7.7313 4.31655-7.45684 4.73716-7.18237 5.05796-6.79029 5.27896-6.28413 5.49639-5.77441 5.60688-5.04014 5.61045-4.07773 5.60688-3.07612 5.49995-2.27768 5.28252-1.68599 5.06153-1.09072 4.73716-0.641602 4.30943-0.331494 3.88169-0.0213867 3.3791 0.131885 2.80166 0.13545 2.18858 0.131885 1.68599-0.0356445 1.29747-0.374267 0.908936-0.716455 0.677247-1.19409 0.598828-1.81075ZM4.54111-5.27182C4.53755-5.82431 4.39141-6.26274 4.09912-6.58711 3.80327-6.90791 3.45039-7.06831 3.03691-7.07188 2.60918-7.06831 2.23491-6.89365 1.91767-6.5479 1.60044-6.19502 1.4436-5.74234 1.4436-5.18984 1.4436-4.68726 1.59331-4.28091 1.89273-3.97437 2.19214-3.66069 2.56284-3.50742 3.0084-3.50742 3.45396-3.50742 3.82109-3.66069 4.10982-3.97437 4.39497-4.28091 4.53755-4.71577 4.54111-5.27182Z" transform="matrix(1 0 0 1.00171 247.404 537.703)"/><path d="M1.93549-4.24883C1.53628-4.39497 1.24043-4.60528 1.04795-4.87617 0.855469-5.14707 0.759228-5.47143 0.759228-5.84927 0.759228-6.41958 0.962405-6.89721 1.37232-7.28575 1.78222-7.67427 2.32759-7.87031 3.0084-7.87031 3.68921-7.87031 4.2417-7.6707 4.66231-7.27505 5.07935-6.87583 5.28609-6.39107 5.28965-5.82431 5.28609-5.45361 5.18984-5.13638 5.00093-4.8726 4.80845-4.60171 4.51972-4.39497 4.13477-4.24883 4.6124-4.08843 4.97954-3.83535 5.23262-3.4896 5.48213-3.13672 5.60688-2.71968 5.61045-2.23847 5.60688-1.56479 5.37163-1.00161 4.89756-0.548926 4.41992-0.0926762 3.79615 0.131885 3.02622 0.13545 2.25273 0.131885 1.62896-0.0926762 1.15488-0.55249 0.677247-1.00874 0.438428-1.58262 0.441992-2.267 0.438428-2.77314 0.566748-3.19732 0.830517-3.54663 1.08716-3.88882 1.45786-4.12407 1.93549-4.24883ZM1.74302-5.88135C1.74302-5.51064 1.86064-5.20766 2.09946-4.97241 2.33828-4.73716 2.64839-4.61953 3.02978-4.61953 3.39693-4.61953 3.6999-4.73359 3.94228-4.96885 4.17754-5.19697 4.29873-5.48569 4.29873-5.82788 4.29873-6.18076 4.17398-6.47661 3.93159-6.71899 3.68208-6.95781 3.3791-7.079 3.02266-7.079 2.65195-7.079 2.34898-6.96138 2.10659-6.72612 1.86421-6.49087 1.74302-6.20928 1.74302-5.88135ZM1.43291-2.25986C1.43291-1.9854 1.49707-1.72163 1.62896-1.46499 1.75727-1.20835 1.94976-1.00874 2.20997-0.866162 2.46304-0.723584 2.74107-0.652295 3.03691-0.655859 3.49673-0.652295 3.87456-0.802002 4.17754-1.10141 4.47339-1.39727 4.6231-1.77154 4.62666-2.23135 4.6231-2.6876 4.46983-3.07256 4.16328-3.3791 3.85318-3.68208 3.46821-3.83179 3.00484-3.83535 2.54859-3.83179 2.17076-3.68208 1.87846-3.38623 1.57905-3.08326 1.43291-2.70898 1.43291-2.25986Z" transform="matrix(1 0 0 1.00171 253.494 537.703)"/><path d="M0.45625-3.86387C0.452686-4.78706 0.548926-5.53203 0.741406-6.10234 0.930321-6.66553 1.21191-7.10396 1.58975-7.41049 1.96045-7.71704 2.43452-7.87031 3.0084-7.87031 3.429-7.87031 3.79971-7.78477 4.11694-7.61724 4.43062-7.44615 4.69082-7.20019 4.90112-6.88296 5.1043-6.56216 5.26826-6.17363 5.38945-5.71738 5.50708-5.25757 5.56412-4.64092 5.56767-3.86387 5.56412-2.94424 5.47143-2.20283 5.28252-1.63965 5.09003-1.0729 4.80488-0.634473 4.43418-0.32793 4.05635-0.0178223 3.58227 0.131885 3.0084 0.13545 2.24917 0.131885 1.65747-0.13545 1.22974-0.677247 0.712891-1.32954 0.452686-2.39174 0.45625-3.86387ZM1.4436-3.86387C1.4436-2.5771 1.59331-1.72163 1.89273-1.2939 2.19214-0.866162 2.56284-0.652295 3.0084-0.655859 3.44682-0.652295 3.81753-0.866162 4.12407-1.29747 4.42349-1.72163 4.57675-2.5771 4.57675-3.86387 4.57675-5.1542 4.42349-6.01323 4.12407-6.4374 3.81753-6.858 3.44326-7.06831 3.00127-7.07188 2.55571-7.06831 2.20283-6.88296 1.93906-6.51226 1.60757-6.03462 1.4436-5.15063 1.4436-3.86387Z" transform="matrix(1 0 0 1.00171 259.584 537.703)"/><path d="M5.51064-0.926753 5.51064 0 0.331494 0C0.324365-0.231689 0.36001-0.452686 0.441992-0.670117 0.573877-1.01944 0.78418-1.36875 1.07647-1.71094 1.36162-2.05313 1.78222-2.44878 2.33828-2.8979 3.18662-3.59654 3.76406-4.14903 4.06347-4.55537 4.36289-4.96172 4.5126-5.34668 4.5126-5.71738 4.5126-6.09522 4.37359-6.41602 4.10268-6.67978 3.82466-6.93642 3.47178-7.06831 3.03691-7.07188 2.57353-7.06831 2.20283-6.9293 1.92481-6.65484 1.64678-6.37325 1.5042-5.98828 1.5042-5.50352L0.513281-5.60332C0.577442-6.3376 0.830517-6.89721 1.27608-7.28931 1.71451-7.67427 2.30977-7.87031 3.0583-7.87031 3.80684-7.87031 4.4021-7.66001 4.84409-7.24297 5.28252-6.82593 5.49995-6.30908 5.50352-5.696 5.49995-5.37876 5.43579-5.07221 5.31103-4.76924 5.17915-4.46269 4.96529-4.14189 4.66944-3.8104 4.37002-3.47178 3.87813-3.01196 3.18662-2.43095 2.60918-1.94263 2.23847-1.6147 2.07451-1.4436 1.91055-1.27251 1.7751-1.09785 1.66816-0.926753Z" transform="matrix(1 0 0 1.00171 386.544 537.703)"/><path d="M0.45625-3.86387C0.452686-4.78706 0.548926-5.53203 0.741406-6.10234 0.930321-6.66553 1.21191-7.10396 1.58975-7.41049 1.96045-7.71704 2.43452-7.87031 3.0084-7.87031 3.429-7.87031 3.79971-7.78477 4.11694-7.61724 4.43062-7.44615 4.69082-7.20019 4.90112-6.88296 5.1043-6.56216 5.26826-6.17363 5.38945-5.71738 5.50708-5.25757 5.56412-4.64092 5.56767-3.86387 5.56412-2.94424 5.47143-2.20283 5.28252-1.63965 5.09003-1.0729 4.80488-0.634473 4.43418-0.32793 4.05635-0.0178223 3.58227 0.131885 3.0084 0.13545 2.24917 0.131885 1.65747-0.13545 1.22974-0.677247 0.712891-1.32954 0.452686-2.39174 0.45625-3.86387ZM1.4436-3.86387C1.4436-2.5771 1.59331-1.72163 1.89273-1.2939 2.19214-0.866162 2.56284-0.652295 3.0084-0.655859 3.44682-0.652295 3.81753-0.866162 4.12407-1.29747 4.42349-1.72163 4.57675-2.5771 4.57675-3.86387 4.57675-5.1542 4.42349-6.01323 4.12407-6.4374 3.81753-6.858 3.44326-7.06831 3.00127-7.07188 2.55571-7.06831 2.20283-6.88296 1.93906-6.51226 1.60757-6.03462 1.4436-5.15063 1.4436-3.86387Z" transform="matrix(1 0 0 1.00171 392.634 537.703)"/><path d="M0.45625-3.86387C0.452686-4.78706 0.548926-5.53203 0.741406-6.10234 0.930321-6.66553 1.21191-7.10396 1.58975-7.41049 1.96045-7.71704 2.43452-7.87031 3.0084-7.87031 3.429-7.87031 3.79971-7.78477 4.11694-7.61724 4.43062-7.44615 4.69082-7.20019 4.90112-6.88296 5.1043-6.56216 5.26826-6.17363 5.38945-5.71738 5.50708-5.25757 5.56412-4.64092 5.56767-3.86387 5.56412-2.94424 5.47143-2.20283 5.28252-1.63965 5.09003-1.0729 4.80488-0.634473 4.43418-0.32793 4.05635-0.0178223 3.58227 0.131885 3.0084 0.13545 2.24917 0.131885 1.65747-0.13545 1.22974-0.677247 0.712891-1.32954 0.452686-2.39174 0.45625-3.86387ZM1.4436-3.86387C1.4436-2.5771 1.59331-1.72163 1.89273-1.2939 2.19214-0.866162 2.56284-0.652295 3.0084-0.655859 3.44682-0.652295 3.81753-0.866162 4.12407-1.29747 4.42349-1.72163 4.57675-2.5771 4.57675-3.86387 4.57675-5.1542 4.42349-6.01323 4.12407-6.4374 3.81753-6.858 3.44326-7.06831 3.00127-7.07188 2.55571-7.06831 2.20283-6.88296 1.93906-6.51226 1.60757-6.03462 1.4436-5.15063 1.4436-3.86387Z" transform="matrix(1 0 0 1.00171 398.724 537.703)"/><path d="M0.45625-3.86387C0.452686-4.78706 0.548926-5.53203 0.741406-6.10234 0.930321-6.66553 1.21191-7.10396 1.58975-7.41049 1.96045-7.71704 2.43452-7.87031 3.0084-7.87031 3.429-7.87031 3.79971-7.78477 4.11694-7.61724 4.43062-7.44615 4.69082-7.20019 4.90112-6.88296 5.1043-6.56216 5.26826-6.17363 5.38945-5.71738 5.50708-5.25757 5.56412-4.64092 5.56767-3.86387 5.56412-2.94424 5.47143-2.20283 5.28252-1.63965 5.09003-1.0729 4.80488-0.634473 4.43418-0.32793 4.05635-0.0178223 3.58227 0.131885 3.0084 0.13545 2.24917 0.131885 1.65747-0.13545 1.22974-0.677247 0.712891-1.32954 0.452686-2.39174 0.45625-3.86387ZM1.4436-3.86387C1.4436-2.5771 1.59331-1.72163 1.89273-1.2939 2.19214-0.866162 2.56284-0.652295 3.0084-0.655859 3.44682-0.652295 3.81753-0.866162 4.12407-1.29747 4.42349-1.72163 4.57675-2.5771 4.57675-3.86387 4.57675-5.1542 4.42349-6.01323 4.12407-6.4374 3.81753-6.858 3.44326-7.06831 3.00127-7.07188 2.55571-7.06831 2.20283-6.88296 1.93906-6.51226 1.60757-6.03462 1.4436-5.15063 1.4436-3.86387Z" transform="matrix(1 0 0 1.00171 404.814 537.703)"/><path d="M5.51064-0.926753 5.51064 0 0.331494 0C0.324365-0.231689 0.36001-0.452686 0.441992-0.670117 0.573877-1.01944 0.78418-1.36875 1.07647-1.71094 1.36162-2.05313 1.78222-2.44878 2.33828-2.8979 3.18662-3.59654 3.76406-4.14903 4.06347-4.55537 4.36289-4.96172 4.5126-5.34668 4.5126-5.71738 4.5126-6.09522 4.37359-6.41602 4.10268-6.67978 3.82466-6.93642 3.47178-7.06831 3.03691-7.07188 2.57353-7.06831 2.20283-6.9293 1.92481-6.65484 1.64678-6.37325 1.5042-5.98828 1.5042-5.50352L0.513281-5.60332C0.577442-6.3376 0.830517-6.89721 1.27608-7.28931 1.71451-7.67427 2.30977-7.87031 3.0583-7.87031 3.80684-7.87031 4.4021-7.66001 4.84409-7.24297 5.28252-6.82593 5.49995-6.30908 5.50352-5.696 5.49995-5.37876 5.43579-5.07221 5.31103-4.76924 5.17915-4.46269 4.96529-4.14189 4.66944-3.8104 4.37002-3.47178 3.87813-3.01196 3.18662-2.43095 2.60918-1.94263 2.23847-1.6147 2.07451-1.4436 1.91055-1.27251 1.7751-1.09785 1.66816-0.926753Z" transform="matrix(1 0 0 1.00171 531.774 537.703)"/><path d="M0.45625-3.86387C0.452686-4.78706 0.548926-5.53203 0.741406-6.10234 0.930321-6.66553 1.21191-7.10396 1.58975-7.41049 1.96045-7.71704 2.43452-7.87031 3.0084-7.87031 3.429-7.87031 3.79971-7.78477 4.11694-7.61724 4.43062-7.44615 4.69082-7.20019 4.90112-6.88296 5.1043-6.56216 5.26826-6.17363 5.38945-5.71738 5.50708-5.25757 5.56412-4.64092 5.56767-3.86387 5.56412-2.94424 5.47143-2.20283 5.28252-1.63965 5.09003-1.0729 4.80488-0.634473 4.43418-0.32793 4.05635-0.0178223 3.58227 0.131885 3.0084 0.13545 2.24917 0.131885 1.65747-0.13545 1.22974-0.677247 0.712891-1.32954 0.452686-2.39174 0.45625-3.86387ZM1.4436-3.86387C1.4436-2.5771 1.59331-1.72163 1.89273-1.2939 2.19214-0.866162 2.56284-0.652295 3.0084-0.655859 3.44682-0.652295 3.81753-0.866162 4.12407-1.29747 4.42349-1.72163 4.57675-2.5771 4.57675-3.86387 4.57675-5.1542 4.42349-6.01323 4.12407-6.4374 3.81753-6.858 3.44326-7.06831 3.00127-7.07188 2.55571-7.06831 2.20283-6.88296 1.93906-6.51226 1.60757-6.03462 1.4436-5.15063 1.4436-3.86387Z" transform="matrix(1 0 0 1.00171 537.863 537.703)"/><path d="M5.51064-0.926753 5.51064 0 0.331494 0C0.324365-0.231689 0.36001-0.452686 0.441992-0.670117 0.573877-1.01944 0.78418-1.36875 1.07647-1.71094 1.36162-2.05313 1.78222-2.44878 2.33828-2.8979 3.18662-3.59654 3.76406-4.14903 4.06347-4.55537 4.36289-4.96172 4.5126-5.34668 4.5126-5.71738 4.5126-6.09522 4.37359-6.41602 4.10268-6.67978 3.82466-6.93642 3.47178-7.06831 3.03691-7.07188 2.57353-7.06831 2.20283-6.9293 1.92481-6.65484 1.64678-6.37325 1.5042-5.98828 1.5042-5.50352L0.513281-5.60332C0.577442-6.3376 0.830517-6.89721 1.27608-7.28931 1.71451-7.67427 2.30977-7.87031 3.0583-7.87031 3.80684-7.87031 4.4021-7.66001 4.84409-7.24297 5.28252-6.82593 5.49995-6.30908 5.50352-5.696 5.49995-5.37876 5.43579-5.07221 5.31103-4.76924 5.17915-4.46269 4.96529-4.14189 4.66944-3.8104 4.37002-3.47178 3.87813-3.01196 3.18662-2.43095 2.60918-1.94263 2.23847-1.6147 2.07451-1.4436 1.91055-1.27251 1.7751-1.09785 1.66816-0.926753Z" transform="matrix(1 0 0 1.00171 543.953 537.703)"/><path d="M0.45625-3.86387C0.452686-4.78706 0.548926-5.53203 0.741406-6.10234 0.930321-6.66553 1.21191-7.10396 1.58975-7.41049 1.96045-7.71704 2.43452-7.87031 3.0084-7.87031 3.429-7.87031 3.79971-7.78477 4.11694-7.61724 4.43062-7.44615 4.69082-7.20019 4.90112-6.88296 5.1043-6.56216 5.26826-6.17363 5.38945-5.71738 5.50708-5.25757 5.56412-4.64092 5.56767-3.86387 5.56412-2.94424 5.47143-2.20283 5.28252-1.63965 5.09003-1.0729 4.80488-0.634473 4.43418-0.32793 4.05635-0.0178223 3.58227 0.131885 3.0084 0.13545 2.24917 0.131885 1.65747-0.13545 1.22974-0.677247 0.712891-1.32954 0.452686-2.39174 0.45625-3.86387ZM1.4436-3.86387C1.4436-2.5771 1.59331-1.72163 1.89273-1.2939 2.19214-0.866162 2.56284-0.652295 3.0084-0.655859 3.44682-0.652295 3.81753-0.866162 4.12407-1.29747 4.42349-1.72163 4.57675-2.5771 4.57675-3.86387 4.57675-5.1542 4.42349-6.01323 4.12407-6.4374 3.81753-6.858 3.44326-7.06831 3.00127-7.07188 2.55571-7.06831 2.20283-6.88296 1.93906-6.51226 1.60757-6.03462 1.4436-5.15063 1.4436-3.86387Z" transform="matrix(1 0 0 1.00171 550.043 537.703)"/><path d="M0-0.866162-7.83823-0.866162-7.83823-6.53365-6.91503-6.53365-6.91503-1.90342-4.5126-1.90342-4.5126-6.2378-3.59297-6.2378-3.59297-1.90342-0.923194-1.90342-0.923194-6.71543 0-6.71543Z" transform="matrix(1 0 0 1.00171 53.9768 426.867)"/><path d="M-2.07807-4.42705-1.95688-5.37519C-1.30102-5.26826-0.787744-5.0045-0.42417-4.58032-0.0534668-4.15259 0.12832-3.62861 0.12832-3.0084 0.12832-2.23135-0.124756-1.60757-0.634473-1.13706-1.14062-0.662989-1.86778-0.427734-2.81592-0.427734-3.42544-0.427734-3.96367-0.527539-4.42705-0.730713-4.88687-0.933889-5.22905-1.24399-5.46075-1.66103-5.68887-2.07451-5.80649-2.5272-5.80649-3.01553-5.80649-3.63218-5.64966-4.13477-5.33599-4.53042-5.02232-4.91894-4.58032-5.17202-4.01001-5.28252L-3.86387-4.34863C-4.24526-4.25595-4.53398-4.09912-4.72647-3.87456-4.91894-3.64643-5.01518-3.37197-5.01518-3.05474-5.01518-2.56641-4.84053-2.17431-4.49122-1.87134-4.14189-1.56836-3.59297-1.41509-2.84444-1.41865-2.08164-1.41509-1.52559-1.56123-1.17984-1.85708-0.834082-2.1458-0.662989-2.5272-0.662989-3.00127-0.662989-3.37197-0.777051-3.68921-1.00874-3.94585-1.24043-4.19892-1.59688-4.35932-2.07807-4.42705Z" transform="matrix(1 0 0 1.00171 53.9768 419.551)"/><path d="M-2.83731-0.363575C-3.88882-0.363575-4.66944-0.655859-5.17559-1.24043-5.59619-1.72876-5.80649-2.32403-5.80649-3.02622-5.80649-3.80684-5.54985-4.44487-5.03657-4.94033-4.52329-5.43222-3.81753-5.67818-2.91929-5.68174-2.18501-5.67818-1.60757-5.56767-1.19409-5.35381-0.773486-5.13281-0.449122-4.81557-0.217431-4.39853 0.0142578-3.97793 0.12832-3.52168 0.12832-3.02622 0.12832-2.22779-0.124756-1.58262-0.634473-1.09785-1.14419-0.605958-1.87846-0.363575-2.83731-0.363575ZM-2.83731-1.3545C-2.10659-1.35093-1.56123-1.51133-1.20478-1.82857-0.841211-2.14224-0.662989-2.54146-0.662989-3.02622-0.662989-3.50385-0.844775-3.89951-1.20835-4.21674-1.57193-4.53398-2.12441-4.69438-2.86938-4.69438-3.57158-4.69438-4.10268-4.53398-4.46626-4.21319-4.82627-3.89238-5.00806-3.49673-5.01162-3.02622-5.00806-2.54502-4.82984-2.1458-4.46983-1.82857-4.10625-1.51133-3.56089-1.35093-2.83731-1.3545Z" transform="matrix(1 0 0 1.00171 53.9768 414.066)"/><path d="M0-0.72002-5.67818-0.723584-5.67818-1.58975-4.86905-1.58975C-5.49282-2.00322-5.80649-2.60562-5.80649-3.39693-5.80649-3.73198-5.74234-4.04565-5.62115-4.33794-5.49639-4.6231-5.33599-4.84053-5.13994-4.98311-4.93677-5.12569-4.70151-5.22549-4.42705-5.28252-4.24883-5.31816-3.93516-5.33599-3.4896-5.33599L0-5.33599 0-4.37359-3.45396-4.37359C-3.84604-4.37359-4.13833-4.33437-4.33437-4.25952-4.52686-4.18467-4.68013-4.05279-4.79775-3.86387-4.91181-3.67139-4.97241-3.44682-4.97241-3.19375-4.97241-2.78028-4.84053-2.4274-4.58032-2.13155-4.32012-1.83213-3.82822-1.68242-3.10108-1.68599L0-1.68242Z" transform="matrix(1 0 0 1.00171 53.9768 407.966)"/><path d="M-2.83731-0.363575C-3.88882-0.363575-4.66944-0.655859-5.17559-1.24043-5.59619-1.72876-5.80649-2.32403-5.80649-3.02622-5.80649-3.80684-5.54985-4.44487-5.03657-4.94033-4.52329-5.43222-3.81753-5.67818-2.91929-5.68174-2.18501-5.67818-1.60757-5.56767-1.19409-5.35381-0.773486-5.13281-0.449122-4.81557-0.217431-4.39853 0.0142578-3.97793 0.12832-3.52168 0.12832-3.02622 0.12832-2.22779-0.124756-1.58262-0.634473-1.09785-1.14419-0.605958-1.87846-0.363575-2.83731-0.363575ZM-2.83731-1.3545C-2.10659-1.35093-1.56123-1.51133-1.20478-1.82857-0.841211-2.14224-0.662989-2.54146-0.662989-3.02622-0.662989-3.50385-0.844775-3.89951-1.20835-4.21674-1.57193-4.53398-2.12441-4.69438-2.86938-4.69438-3.57158-4.69438-4.10268-4.53398-4.46626-4.21319-4.82627-3.89238-5.00806-3.49673-5.01162-3.02622-5.00806-2.54502-4.82984-2.1458-4.46983-1.82857-4.10625-1.51133-3.56089-1.35093-2.83731-1.3545Z" transform="matrix(1 0 0 1.00171 53.9768 401.865)"/><path d="M0-0.72002-5.67818-0.723584-5.67818-1.58262-4.8833-1.58262C-5.1542-1.76084-5.37876-1.99609-5.54985-2.29194-5.72095-2.5878-5.80649-2.92641-5.80649-3.30424-5.80649-3.72485-5.71738-4.06704-5.54273-4.33794-5.36806-4.60171-5.12569-4.79419-4.81201-4.90826-5.475-5.35737-5.80649-5.94194-5.80649-6.66196-5.80649-7.22515-5.64966-7.65644-5.33599-7.95943-5.02232-8.26241-4.54111-8.41568-3.89595-8.41568L0-8.41568 0-7.45684-3.57515-7.45684C-3.95655-7.45327-4.23457-7.42119-4.40566-7.36416-4.57675-7.3-4.7122-7.18951-4.81557-7.02554-4.91894-6.86157-4.97241-6.66909-4.97241-6.4481-4.97241-6.04888-4.83696-5.71738-4.57319-5.45361-4.30586-5.18984-3.88169-5.05796-3.29712-5.05796L0-5.05796 0-4.09556-3.68921-4.09556C-4.11694-4.09556-4.43774-4.01714-4.65162-3.8603-4.86548-3.70346-4.97241-3.44682-4.97241-3.09038-4.97241-2.81948-4.90112-2.56641-4.75854-2.33828-4.61596-2.10659-4.40566-1.94263-4.1312-1.83925-3.85674-1.73589-3.46109-1.68242-2.94424-1.68599L0-1.68242Z" transform="matrix(1 0 0 1.00171 53.9768 395.765)"/><path d="M-6.72969-0.727148-7.83823-0.727148-7.83823-1.68955-6.72969-1.68955ZM0-0.727148-5.67818-0.727148-5.67818-1.68955 0-1.68955Z" transform="matrix(1 0 0 1.00171 53.9768 386.628)"/><path d="M-2.07807-4.42705-1.95688-5.37519C-1.30102-5.26826-0.787744-5.0045-0.42417-4.58032-0.0534668-4.15259 0.12832-3.62861 0.12832-3.0084 0.12832-2.23135-0.124756-1.60757-0.634473-1.13706-1.14062-0.662989-1.86778-0.427734-2.81592-0.427734-3.42544-0.427734-3.96367-0.527539-4.42705-0.730713-4.88687-0.933889-5.22905-1.24399-5.46075-1.66103-5.68887-2.07451-5.80649-2.5272-5.80649-3.01553-5.80649-3.63218-5.64966-4.13477-5.33599-4.53042-5.02232-4.91894-4.58032-5.17202-4.01001-5.28252L-3.86387-4.34863C-4.24526-4.25595-4.53398-4.09912-4.72647-3.87456-4.91894-3.64643-5.01518-3.37197-5.01518-3.05474-5.01518-2.56641-4.84053-2.17431-4.49122-1.87134-4.14189-1.56836-3.59297-1.41509-2.84444-1.41865-2.08164-1.41509-1.52559-1.56123-1.17984-1.85708-0.834082-2.1458-0.662989-2.5272-0.662989-3.00127-0.662989-3.37197-0.777051-3.68921-1.00874-3.94585-1.24043-4.19892-1.59688-4.35932-2.07807-4.42705Z" transform="matrix(1 0 0 1.00171 53.9768 384.191)"/><path d="M-2.74819-6.4374-2.48443-7.47466C-1.63252-7.25722-0.983784-6.86514-0.534668-6.30195-0.0891114-5.73521 0.131885-5.0437 0.13545-4.22744 0.131885-3.38266-0.0356445-2.69472-0.381397-2.16719-0.723584-1.63609-1.2226-1.2333-1.8749-0.958837-2.5272-0.680811-3.22939-0.545361-3.97793-0.545361-4.79419-0.545361-5.50352-0.698633-6.11304-1.01231-6.71899-1.32241-7.18237-1.76797-7.49604-2.34541-7.80971-2.91929-7.96655-3.55376-7.97012-4.24526-7.96655-5.02944-7.76694-5.68887-7.37128-6.22353-6.96851-6.7582-6.40889-7.12891-5.68887-7.34278L-5.44648-6.31977C-6.01323-6.13443-6.43028-5.87065-6.69405-5.52846-6.95424-5.18272-7.08257-4.74785-7.08613-4.22388-7.08257-3.62148-6.93999-3.11533-6.65127-2.71255-6.35898-2.3062-5.97046-2.02461-5.48569-1.86064-5.00093-1.69668-4.49834-1.6147-3.98506-1.6147-3.31494-1.6147-2.73393-1.71094-2.23491-1.90342-1.73589-2.0959-1.36162-2.39888-1.11924-2.81235-0.869727-3.22227-0.748536-3.66425-0.7521-4.14189-0.748536-4.7229-0.916068-5.21479-1.25469-5.61758-1.58618-6.02036-2.08521-6.29483-2.74819-6.4374Z" transform="matrix(1 0 0 1.00171 53.9768 375.659)"/><path d="M-2.83731-0.363575C-3.88882-0.363575-4.66944-0.655859-5.17559-1.24043-5.59619-1.72876-5.80649-2.32403-5.80649-3.02622-5.80649-3.80684-5.54985-4.44487-5.03657-4.94033-4.52329-5.43222-3.81753-5.67818-2.91929-5.68174-2.18501-5.67818-1.60757-5.56767-1.19409-5.35381-0.773486-5.13281-0.449122-4.81557-0.217431-4.39853 0.0142578-3.97793 0.12832-3.52168 0.12832-3.02622 0.12832-2.22779-0.124756-1.58262-0.634473-1.09785-1.14419-0.605958-1.87846-0.363575-2.83731-0.363575ZM-2.83731-1.3545C-2.10659-1.35093-1.56123-1.51133-1.20478-1.82857-0.841211-2.14224-0.662989-2.54146-0.662989-3.02622-0.662989-3.50385-0.844775-3.89951-1.20835-4.21674-1.57193-4.53398-2.12441-4.69438-2.86938-4.69438-3.57158-4.69438-4.10268-4.53398-4.46626-4.21319-4.82627-3.89238-5.00806-3.49673-5.01162-3.02622-5.00806-2.54502-4.82984-2.1458-4.46983-1.82857-4.10625-1.51133-3.56089-1.35093-2.83731-1.3545Z" transform="matrix(1 0 0 1.00171 53.9768 367.738)"/><path d="M0-0.72002-5.67818-0.723584-5.67818-1.58262-4.8833-1.58262C-5.1542-1.76084-5.37876-1.99609-5.54985-2.29194-5.72095-2.5878-5.80649-2.92641-5.80649-3.30424-5.80649-3.72485-5.71738-4.06704-5.54273-4.33794-5.36806-4.60171-5.12569-4.79419-4.81201-4.90826-5.475-5.35737-5.80649-5.94194-5.80649-6.66196-5.80649-7.22515-5.64966-7.65644-5.33599-7.95943-5.02232-8.26241-4.54111-8.41568-3.89595-8.41568L0-8.41568 0-7.45684-3.57515-7.45684C-3.95655-7.45327-4.23457-7.42119-4.40566-7.36416-4.57675-7.3-4.7122-7.18951-4.81557-7.02554-4.91894-6.86157-4.97241-6.66909-4.97241-6.4481-4.97241-6.04888-4.83696-5.71738-4.57319-5.45361-4.30586-5.18984-3.88169-5.05796-3.29712-5.05796L0-5.05796 0-4.09556-3.68921-4.09556C-4.11694-4.09556-4.43774-4.01714-4.65162-3.8603-4.86548-3.70346-4.97241-3.44682-4.97241-3.09038-4.97241-2.81948-4.90112-2.56641-4.75854-2.33828-4.61596-2.10659-4.40566-1.94263-4.1312-1.83925-3.85674-1.73589-3.46109-1.68242-2.94424-1.68599L0-1.68242Z" transform="matrix(1 0 0 1.00171 53.9768 361.638)"/><path d="M2.17431-0.72002-5.67818-0.723584-5.67818-1.60044-4.94033-1.60044C-5.22905-1.80361-5.44292-2.03887-5.58906-2.29907-5.73164-2.55928-5.80649-2.87295-5.80649-3.24721-5.80649-3.72485-5.68174-4.15259-5.43222-4.52686-5.18272-4.89399-4.82984-5.17559-4.37359-5.36806-3.91734-5.55698-3.41831-5.64966-2.88008-5.65322-2.29907-5.64966-1.7751-5.54628-1.31172-5.33955-0.841211-5.12924-0.484766-4.82627-0.242383-4.43062 0.00712891-4.0314 0.12832-3.61436 0.12832-3.17593 0.12832-2.85513 0.0605958-2.56641-0.0748536-2.31333-0.210303-2.05669-0.381397-1.84639-0.588135-1.68242L2.17431-1.68242ZM-2.80878-1.59331C-2.07451-1.59331-1.53628-1.73945-1.18696-2.0353-0.837647-2.33115-0.662989-2.69116-0.662989-3.11177-0.662989-3.53951-0.841211-3.90307-1.20478-4.20962-1.56123-4.5126-2.12441-4.66587-2.8872-4.66944-3.60722-4.66587-4.14903-4.51616-4.5126-4.22031-4.8726-3.9209-5.05083-3.56802-5.05439-3.15454-5.05083-2.74463-4.85835-2.38106-4.47695-2.06738-4.092-1.75015-3.53594-1.59331-2.80878-1.59331Z" transform="matrix(1 0 0 1.00171 53.9768 352.501)"/><path d="M0-0.698633-7.83823-0.702197-7.83823-1.6646 0-1.66103Z" transform="matrix(1 0 0 1.00171 53.9768 346.4)"/><path d="M-1.82857-4.60884-1.70381-5.60332C-1.1228-5.44648-0.673681-5.1542-0.352881-4.73003-0.0320801-4.30586 0.12832-3.76406 0.12832-3.1082 0.12832-2.27412-0.124756-1.6147-0.638037-1.12993-1.14419-0.641602-1.86421-0.399219-2.79096-0.402783-3.74624-0.399219-4.48765-0.645166-5.01518-1.14062-5.54273-1.62896-5.80649-2.267-5.80649-3.05474-5.80649-3.8104-5.54628-4.43062-5.02944-4.91181-4.5126-5.39302-3.78545-5.6354-2.84799-5.6354-2.7874-5.6354-2.70186-5.63184-2.59135-5.63184L-2.59492-1.39727C-1.96758-1.42935-1.48994-1.60757-1.15845-1.92481-0.826953-2.24204-0.662989-2.63769-0.662989-3.11177-0.662989-3.46465-0.755664-3.76406-0.941016-4.01714-1.12637-4.26309-1.42221-4.46269-1.82857-4.60884ZM-3.38623-1.45073-3.38266-4.61953C-3.85674-4.57675-4.21674-4.45556-4.45913-4.25595-4.82984-3.94941-5.01518-3.55019-5.01518-3.06543-5.01518-2.61987-4.86548-2.24917-4.56963-1.94976-4.27378-1.64678-3.87813-1.47924-3.38623-1.45073Z" transform="matrix(1 0 0 1.00171 53.9768 343.964)"/><path d="M0-0.078418-2.95137-2.15293-5.67818-0.235254-5.67818-1.44003-4.34863-2.30977C-4.092-2.47373-3.88169-2.60562-3.7106-2.70542-3.94585-2.86226-4.15259-3.00484-4.33437-3.14029L-5.67818-4.09556-5.67818-5.24688-3.00484-3.28286 0-5.39658 0-4.21319-1.7644-3.0476-2.23847-2.7375 0-1.24756Z" transform="matrix(1 0 0 1.00171 53.9768 337.864)"/><path d="M-6.72969-0.727148-7.83823-0.727148-7.83823-1.68955-6.72969-1.68955ZM0-0.727148-5.67818-0.727148-5.67818-1.68955 0-1.68955Z" transform="matrix(1 0 0 1.00171 53.9768 332.38)"/><path d="M-0.859033-2.82305-0.0106934-2.96206C0.0463379-2.69116 0.0748536-2.44878 0.0748536-2.23491 0.0748536-1.8856 0.0213867-1.6147-0.0891114-1.42221-0.199609-1.22974-0.345752-1.09429-0.523975-1.01587-0.702197-0.937448-1.08003-0.898242-1.66103-0.898242L-4.92964-0.898242-4.92964-0.192481-5.67818-0.192481-5.67818-0.898242-7.08613-0.898242-7.66358-1.85708-5.67818-1.85708-5.67818-2.82305-4.92964-2.82305-4.92964-1.85708-1.60757-1.85352C-1.33311-1.84995-1.15845-1.86778-1.08003-1.90342-1.00161-1.93906-0.937448-1.99253-0.891114-2.07095-0.844775-2.1458-0.823389-2.2563-0.823389-2.40244-0.823389-2.50225-0.834082-2.64483-0.859033-2.82305Z" transform="matrix(1 0 0 1.00171 53.9768 329.943)"/><path d="M2.18858-0.677247 1.2832-0.570312C1.34023-0.780615 1.36875-0.965963 1.36875-1.1228 1.36875-1.33667 1.33311-1.50776 1.26181-1.63609 1.19053-1.7644 1.09072-1.86778 0.962405-1.95332 0.866162-2.01035 0.627344-2.11016 0.245947-2.24561 0.192481-2.26343 0.114063-2.29194 0.0106934-2.33115L-5.67818-0.178223-5.67818-1.21548-2.38819-2.39531C-1.97115-2.54502-1.53272-2.68047-1.0729-2.80878-1.51133-2.91572-1.94263-3.0476-2.3668-3.20088L-5.67818-4.41635-5.67818-5.37876 0.0962405-3.2187C0.72002-2.98701 1.14775-2.80523 1.38657-2.68047 1.70024-2.50581 1.93194-2.30977 2.08164-2.08877 2.22422-1.86421 2.29907-1.60044 2.30264-1.29747 2.29907-1.10854 2.25986-0.901806 2.18858-0.677247Z" transform="matrix(1 0 0 1.00171 53.9768 326.895)"/><path d="M0-1.01944-7.83823-1.02299-7.83823-2.06025 0-2.06025Z" transform="matrix(1 0 0 1.00171 53.9768 318.364)"/><path d="M0-0.72002-5.67818-0.723584-5.67818-1.58975-4.86905-1.58975C-5.49282-2.00322-5.80649-2.60562-5.80649-3.39693-5.80649-3.73198-5.74234-4.04565-5.62115-4.33794-5.49639-4.6231-5.33599-4.84053-5.13994-4.98311-4.93677-5.12569-4.70151-5.22549-4.42705-5.28252-4.24883-5.31816-3.93516-5.33599-3.4896-5.33599L0-5.33599 0-4.37359-3.45396-4.37359C-3.84604-4.37359-4.13833-4.33437-4.33437-4.25952-4.52686-4.18467-4.68013-4.05279-4.79775-3.86387-4.91181-3.67139-4.97241-3.44682-4.97241-3.19375-4.97241-2.78028-4.84053-2.4274-4.58032-2.13155-4.32012-1.83213-3.82822-1.68242-3.10108-1.68599L0-1.68242Z" transform="matrix(1 0 0 1.00171 53.9768 315.316)"/><path d="M0-4.40566-0.716455-4.40566C-0.153272-4.04209 0.12832-3.51099 0.12832-2.81592 0.12832-2.36323 0.00356445-1.94619-0.245947-1.56836-0.495459-1.1834-0.841211-0.891114-1.29033-0.684375-1.73233-0.477637-2.24917-0.374267-2.83374-0.374267-3.40049-0.374267-3.91377-0.466944-4.37715-0.655859-4.83696-0.844775-5.18984-1.12993-5.43579-1.50776-5.68174-1.8856-5.80649-2.3062-5.80649-2.77671-5.80649-3.11533-5.73164-3.42188-5.58906-3.68921-5.44292-3.95655-5.25757-4.17398-5.02588-4.3415L-7.83823-4.3415-7.83823-5.30034 0-5.29678ZM-2.83374-1.36518C-2.10659-1.36162-1.56123-1.5149-1.20122-1.82143-0.841211-2.12441-0.662989-2.48799-0.662989-2.90859-0.662989-3.3292-0.834082-3.68564-1.17627-3.97793-1.51845-4.27022-2.04243-4.41635-2.75175-4.41992-3.52881-4.41635-4.09912-4.26665-4.46626-3.9708-4.82627-3.67139-5.00806-3.30424-5.01162-2.86582-5.00806-2.43809-4.8334-2.07807-4.48765-1.79292-4.13477-1.5042-3.58584-1.36162-2.83374-1.36518Z" transform="matrix(1 0 0 1.00171 53.9768 309.216)"/><path d="M-1.82857-4.60884-1.70381-5.60332C-1.1228-5.44648-0.673681-5.1542-0.352881-4.73003-0.0320801-4.30586 0.12832-3.76406 0.12832-3.1082 0.12832-2.27412-0.124756-1.6147-0.638037-1.12993-1.14419-0.641602-1.86421-0.399219-2.79096-0.402783-3.74624-0.399219-4.48765-0.645166-5.01518-1.14062-5.54273-1.62896-5.80649-2.267-5.80649-3.05474-5.80649-3.8104-5.54628-4.43062-5.02944-4.91181-4.5126-5.39302-3.78545-5.6354-2.84799-5.6354-2.7874-5.6354-2.70186-5.63184-2.59135-5.63184L-2.59492-1.39727C-1.96758-1.42935-1.48994-1.60757-1.15845-1.92481-0.826953-2.24204-0.662989-2.63769-0.662989-3.11177-0.662989-3.46465-0.755664-3.76406-0.941016-4.01714-1.12637-4.26309-1.42221-4.46269-1.82857-4.60884ZM-3.38623-1.45073-3.38266-4.61953C-3.85674-4.57675-4.21674-4.45556-4.45913-4.25595-4.82984-3.94941-5.01518-3.55019-5.01518-3.06543-5.01518-2.61987-4.86548-2.24917-4.56963-1.94976-4.27378-1.64678-3.87813-1.47924-3.38623-1.45073Z" transform="matrix(1 0 0 1.00171 53.9768 303.115)"/><path d="M0-0.078418-2.95137-2.15293-5.67818-0.235254-5.67818-1.44003-4.34863-2.30977C-4.092-2.47373-3.88169-2.60562-3.7106-2.70542-3.94585-2.86226-4.15259-3.00484-4.33437-3.14029L-5.67818-4.09556-5.67818-5.24688-3.00484-3.28286 0-5.39658 0-4.21319-1.7644-3.0476-2.23847-2.7375 0-1.24756Z" transform="matrix(1 0 0 1.00171 53.9768 297.015)"/><path d="M2.30264-2.55928C1.63252-2.02818 0.851905-1.57905-0.0463379-1.21191-0.944583-0.844775-1.8749-0.662989-2.83731-0.662989-3.68564-0.662989-4.49834-0.798438-5.27539-1.07647-6.1772-1.3937-7.07544-1.88916-7.97012-2.56284L-7.97012-3.25078C-7.22515-2.81948-6.6976-2.53432-6.38393-2.39531-5.89204-2.17788-5.37876-2.00679-4.84409-1.88203-4.17398-1.72876-3.50385-1.65034-2.83374-1.65391-1.11568-1.65034 0.595264-2.18501 2.30264-3.25078Z" transform="matrix(1 0 0 1.00171 53.9768 288.483)"/><path d="M0-0.862598-7.83823-0.862598-7.83823-4.33794C-7.83823-5.033-7.76694-5.56412-7.62437-5.93125-7.48179-6.29126-7.23227-6.58354-6.87939-6.80097-6.51938-7.01841-6.12729-7.12534-5.69956-7.12891-5.14351-7.12534-4.67299-6.94712-4.2916-6.58711-3.91021-6.22353-3.66782-5.66748-3.56445-4.91894-3.43257-5.19341-3.30424-5.40015-3.17593-5.54628-2.8979-5.8457-2.54859-6.13443-2.13155-6.40532L0-7.7705 0-6.46592-1.62896-5.4251C-2.0959-5.12212-2.45591-4.8726-2.70898-4.67656-2.95493-4.48052-3.12959-4.30586-3.23296-4.15259-3.3292-3.99576-3.40049-3.83891-3.44326-3.67852-3.46465-3.56089-3.47534-3.36841-3.47891-3.10108L-3.47891-1.89985 0-1.89628ZM-4.37715-1.89985-4.37715-4.12764C-4.37359-4.60171-4.42349-4.97241-4.52329-5.23975-4.6231-5.50352-4.77993-5.70669-4.9938-5.84927-5.20766-5.98828-5.44292-6.05601-5.69956-6.05957-6.07026-6.05601-6.37325-5.92056-6.61206-5.65322-6.85088-5.38233-6.97207-4.95815-6.97207-4.38071L-6.97207-1.89985Z" transform="matrix(1 0 0 1.00171 53.9768 284.83)"/><path d="M-0.698633-4.42705C-0.395655-4.07061-0.181787-3.72485-0.0570313-3.39693 0.0677247-3.06187 0.12832-2.70898 0.12832-2.33828 0.12832-1.71094-0.0213867-1.2333-0.32793-0.898242-0.627344-0.563184-1.01944-0.395655-1.49707-0.395655-1.7751-0.395655-2.02818-0.45625-2.2563-0.58457-2.48443-0.709326-2.66977-0.876856-2.81235-1.08359-2.95137-1.28677-3.05474-1.51845-3.12959-1.7751-3.17236-1.96401-3.22227-2.24917-3.27217-2.63056-3.36484-3.40762-3.47534-3.97793-3.60366-4.34863-3.73198-4.34863-3.81397-4.3522-3.85674-4.3522-4.2417-4.3522-4.51972-4.25952-4.68369-4.07773-4.90112-3.83179-5.00806-3.46821-5.01162-2.98345-5.00806-2.53076-4.92964-2.1957-4.7728-1.98184-4.6124-1.7644-4.33081-1.604-3.92803-1.5042L-4.05635-0.563184C-4.45913-0.645166-4.7835-0.787744-5.033-0.983784-5.27539-1.17984-5.46787-1.46142-5.60332-1.83569-5.73877-2.20283-5.80649-2.63413-5.80649-3.12247-5.80649-3.60722-5.74946-3.99931-5.6354-4.30229-5.52134-4.60528-5.37519-4.82984-5.2041-4.97241-5.02944-5.11499-4.81201-5.21479-4.54825-5.27182-4.38428-5.30034-4.08843-5.3146-3.66425-5.31816L-2.37749-5.31816C-1.48281-5.3146-0.916068-5.33599-0.680811-5.37876-0.438428-5.42154-0.213867-5.50352 0-5.6247L0-4.61953C-0.199609-4.51972-0.431299-4.45556-0.698633-4.42705ZM-2.84799-4.34863C-2.70186-3.99219-2.58066-3.46821-2.48799-2.77314-2.4274-2.37749-2.36323-2.09946-2.2955-1.93549-2.22065-1.77154-2.11728-1.64321-1.98184-1.5541-1.84282-1.46499-1.68955-1.42221-1.52559-1.42221-1.26538-1.42221-1.05151-1.51845-0.88042-1.71094-0.705762-1.90342-0.620215-2.18858-0.62378-2.56641-0.620215-2.93711-0.702197-3.26503-0.866162-3.55376-1.03013-3.84248-1.25112-4.05635-1.53272-4.1918-1.75015-4.29516-2.07095-4.34507-2.49512-4.34863Z" transform="matrix(1 0 0 1.00171 53.9768 276.909)"/><path d="M0-0.72002-5.67818-0.723584-5.67818-1.58975-4.86905-1.58975C-5.49282-2.00322-5.80649-2.60562-5.80649-3.39693-5.80649-3.73198-5.74234-4.04565-5.62115-4.33794-5.49639-4.6231-5.33599-4.84053-5.13994-4.98311-4.93677-5.12569-4.70151-5.22549-4.42705-5.28252-4.24883-5.31816-3.93516-5.33599-3.4896-5.33599L0-5.33599 0-4.37359-3.45396-4.37359C-3.84604-4.37359-4.13833-4.33437-4.33437-4.25952-4.52686-4.18467-4.68013-4.05279-4.79775-3.86387-4.91181-3.67139-4.97241-3.44682-4.97241-3.19375-4.97241-2.78028-4.84053-2.4274-4.58032-2.13155-4.32012-1.83213-3.82822-1.68242-3.10108-1.68599L0-1.68242Z" transform="matrix(1 0 0 1.00171 53.9768 270.809)"/><path d="M0-0.727148-7.83823-0.727148-7.83823-1.68955-3.36841-1.68955-5.67818-3.96724-5.67818-5.21123-3.57158-3.04405 0-5.43222 0-4.24526-2.90147-2.3668-2.25273-1.68955 0-1.68955Z" transform="matrix(1 0 0 1.00171 53.9768 264.708)"/><path d="M2.30264-1.35093 2.30264-0.662989C0.595264-1.72519-1.11568-2.2563-2.83374-2.25986-3.50385-2.25986-4.16685-2.18501-4.82627-2.03174-5.36094-1.91055-5.87422-1.73945-6.36611-1.52559-6.68691-1.383-7.22158-1.09785-7.97012-0.662989L-7.97012-1.3545C-7.07544-2.02104-6.1772-2.5165-5.27539-2.84087-4.49834-3.11177-3.68564-3.25078-2.83731-3.25078-1.87134-3.25078-0.941016-3.06543-0.0463379-2.69829 0.851905-2.32759 1.63252-1.87846 2.30264-1.35093Z" transform="matrix(1 0 0 1.00171 53.9768 259.224)"/></g></svg>